<svg xmlns="http://www.w3.org/2000/svg" width="19.13" height="12.749" viewBox="0 0 19.13 12.749">
  <g id="eye" transform="translate(0.001 -85.418)">
    <g id="Groupe_98" data-name="Groupe 98" transform="translate(-0.001 85.418)">
      <g id="Groupe_97" data-name="Groupe 97" transform="translate(0)">
        <path id="Tracé_24" data-name="Tracé 24" d="M19.022,91.394c-.143-.239-3.49-5.976-9.458-5.976S.249,91.155.105,91.394a.8.8,0,0,0,0,.8c.143.239,3.49,5.976,9.458,5.976s9.315-5.737,9.458-5.976A.8.8,0,0,0,19.022,91.394ZM9.564,96.573c-4.207,0-7-3.57-7.817-4.781.8-1.211,3.6-4.781,7.817-4.781s7,3.57,7.817,4.781C16.56,93,13.787,96.573,9.564,96.573Z" transform="translate(0.001 -85.418)" fill="#868686"/>
        <path id="Tracé_25" data-name="Tracé 25" d="M153.4,149.418a3.984,3.984,0,1,0,3.984,3.984A3.984,3.984,0,0,0,153.4,149.418Zm0,6.375a2.39,2.39,0,1,1,2.39-2.39A2.39,2.39,0,0,1,153.4,155.793Z" transform="translate(-143.837 -147.028)" fill="#868686"/>
        <circle id="Ellipse_1" data-name="Ellipse 1" cx="0.797" cy="0.797" r="0.797" transform="translate(9.565 4.781)" fill="#868686"/>
      </g>
    </g>
  </g>
</svg>
