<svg xmlns="http://www.w3.org/2000/svg" width="205" height="222" viewBox="0 0 205 222">
  <g id="Groupe_132" data-name="Groupe 132" transform="translate(205 -1736)" opacity="0.232">
    <ellipse id="Ellipse_77" data-name="Ellipse 77" cx="3" cy="3.5" rx="3" ry="3.5" transform="translate(0 1958) rotate(-180)" fill="#fff"/>
    <ellipse id="Ellipse_77-2" data-name="Ellipse 77" cx="3" cy="3.5" rx="3" ry="3.5" transform="translate(-25 1958) rotate(-180)" fill="#fff"/>
    <ellipse id="Ellipse_77-3" data-name="Ellipse 77" cx="3" cy="3.5" rx="3" ry="3.5" transform="translate(-50 1958) rotate(-180)" fill="#fff"/>
    <ellipse id="Ellipse_77-4" data-name="Ellipse 77" cx="3" cy="3.5" rx="3" ry="3.5" transform="translate(-75 1958) rotate(-180)" fill="#fff"/>
    <circle id="Ellipse_77-5" data-name="Ellipse 77" cx="3.5" cy="3.5" r="3.5" transform="translate(-99 1958) rotate(-180)" fill="#fff"/>
    <ellipse id="Ellipse_77-6" data-name="Ellipse 77" cx="3" cy="3.5" rx="3" ry="3.5" transform="translate(-124 1958) rotate(-180)" fill="#fff"/>
    <ellipse id="Ellipse_77-7" data-name="Ellipse 77" cx="3" cy="3.5" rx="3" ry="3.5" transform="translate(-149 1958) rotate(-180)" fill="#fff"/>
    <ellipse id="Ellipse_77-8" data-name="Ellipse 77" cx="3" cy="3.5" rx="3" ry="3.5" transform="translate(-174 1958) rotate(-180)" fill="#fff"/>
    <ellipse id="Ellipse_77-9" data-name="Ellipse 77" cx="3" cy="3.5" rx="3" ry="3.5" transform="translate(-199 1958) rotate(-180)" fill="#fff"/>
    <ellipse id="Ellipse_77-10" data-name="Ellipse 77" cx="3" cy="3.5" rx="3" ry="3.5" transform="translate(0 1931) rotate(-180)" fill="#fff"/>
    <ellipse id="Ellipse_77-11" data-name="Ellipse 77" cx="3" cy="3.5" rx="3" ry="3.5" transform="translate(-25 1931) rotate(-180)" fill="#fff"/>
    <ellipse id="Ellipse_77-12" data-name="Ellipse 77" cx="3" cy="3.5" rx="3" ry="3.5" transform="translate(-50 1931) rotate(-180)" fill="#fff"/>
    <ellipse id="Ellipse_77-13" data-name="Ellipse 77" cx="3" cy="3.5" rx="3" ry="3.5" transform="translate(-75 1931) rotate(-180)" fill="#fff"/>
    <circle id="Ellipse_77-14" data-name="Ellipse 77" cx="3.5" cy="3.5" r="3.5" transform="translate(-99 1931) rotate(-180)" fill="#fff"/>
    <ellipse id="Ellipse_77-15" data-name="Ellipse 77" cx="3" cy="3.5" rx="3" ry="3.5" transform="translate(-124 1931) rotate(-180)" fill="#fff"/>
    <ellipse id="Ellipse_77-16" data-name="Ellipse 77" cx="3" cy="3.5" rx="3" ry="3.5" transform="translate(-149 1931) rotate(-180)" fill="#fff"/>
    <ellipse id="Ellipse_77-17" data-name="Ellipse 77" cx="3" cy="3.5" rx="3" ry="3.5" transform="translate(-174 1931) rotate(-180)" fill="#fff"/>
    <ellipse id="Ellipse_77-18" data-name="Ellipse 77" cx="3" cy="3.5" rx="3" ry="3.5" transform="translate(-199 1931) rotate(-180)" fill="#fff"/>
    <circle id="Ellipse_77-19" data-name="Ellipse 77" cx="3" cy="3" r="3" transform="translate(0 1904) rotate(-180)" fill="#fff"/>
    <circle id="Ellipse_77-20" data-name="Ellipse 77" cx="3" cy="3" r="3" transform="translate(-25 1904) rotate(-180)" fill="#fff"/>
    <circle id="Ellipse_77-21" data-name="Ellipse 77" cx="3" cy="3" r="3" transform="translate(-50 1904) rotate(-180)" fill="#fff"/>
    <circle id="Ellipse_77-22" data-name="Ellipse 77" cx="3" cy="3" r="3" transform="translate(-75 1904) rotate(-180)" fill="#fff"/>
    <ellipse id="Ellipse_77-23" data-name="Ellipse 77" cx="3.5" cy="3" rx="3.5" ry="3" transform="translate(-99 1904) rotate(-180)" fill="#fff"/>
    <circle id="Ellipse_77-24" data-name="Ellipse 77" cx="3" cy="3" r="3" transform="translate(-124 1904) rotate(-180)" fill="#fff"/>
    <circle id="Ellipse_77-25" data-name="Ellipse 77" cx="3" cy="3" r="3" transform="translate(-149 1904) rotate(-180)" fill="#fff"/>
    <circle id="Ellipse_77-26" data-name="Ellipse 77" cx="3" cy="3" r="3" transform="translate(-174 1904) rotate(-180)" fill="#fff"/>
    <circle id="Ellipse_77-27" data-name="Ellipse 77" cx="3" cy="3" r="3" transform="translate(-199 1904) rotate(-180)" fill="#fff"/>
    <circle id="Ellipse_77-28" data-name="Ellipse 77" cx="3" cy="3" r="3" transform="translate(0 1877) rotate(-180)" fill="#fff"/>
    <circle id="Ellipse_77-29" data-name="Ellipse 77" cx="3" cy="3" r="3" transform="translate(-25 1877) rotate(-180)" fill="#fff"/>
    <circle id="Ellipse_77-30" data-name="Ellipse 77" cx="3" cy="3" r="3" transform="translate(-50 1877) rotate(-180)" fill="#fff"/>
    <circle id="Ellipse_77-31" data-name="Ellipse 77" cx="3" cy="3" r="3" transform="translate(-75 1877) rotate(-180)" fill="#fff"/>
    <ellipse id="Ellipse_77-32" data-name="Ellipse 77" cx="3.5" cy="3" rx="3.5" ry="3" transform="translate(-99 1877) rotate(-180)" fill="#fff"/>
    <circle id="Ellipse_77-33" data-name="Ellipse 77" cx="3" cy="3" r="3" transform="translate(-124 1877) rotate(-180)" fill="#fff"/>
    <circle id="Ellipse_77-34" data-name="Ellipse 77" cx="3" cy="3" r="3" transform="translate(-149 1877) rotate(-180)" fill="#fff"/>
    <circle id="Ellipse_77-35" data-name="Ellipse 77" cx="3" cy="3" r="3" transform="translate(-174 1877) rotate(-180)" fill="#fff"/>
    <circle id="Ellipse_77-36" data-name="Ellipse 77" cx="3" cy="3" r="3" transform="translate(-199 1877) rotate(-180)" fill="#fff"/>
    <circle id="Ellipse_77-37" data-name="Ellipse 77" cx="3" cy="3" r="3" transform="translate(0 1850) rotate(-180)" fill="#fff"/>
    <circle id="Ellipse_77-38" data-name="Ellipse 77" cx="3" cy="3" r="3" transform="translate(-25 1850) rotate(-180)" fill="#fff"/>
    <circle id="Ellipse_77-39" data-name="Ellipse 77" cx="3" cy="3" r="3" transform="translate(-50 1850) rotate(-180)" fill="#fff"/>
    <circle id="Ellipse_77-40" data-name="Ellipse 77" cx="3" cy="3" r="3" transform="translate(-75 1850) rotate(-180)" fill="#fff"/>
    <ellipse id="Ellipse_77-41" data-name="Ellipse 77" cx="3.5" cy="3" rx="3.5" ry="3" transform="translate(-99 1850) rotate(-180)" fill="#fff"/>
    <circle id="Ellipse_77-42" data-name="Ellipse 77" cx="3" cy="3" r="3" transform="translate(-124 1850) rotate(-180)" fill="#fff"/>
    <circle id="Ellipse_77-43" data-name="Ellipse 77" cx="3" cy="3" r="3" transform="translate(-149 1850) rotate(-180)" fill="#fff"/>
    <circle id="Ellipse_77-44" data-name="Ellipse 77" cx="3" cy="3" r="3" transform="translate(-174 1850) rotate(-180)" fill="#fff"/>
    <circle id="Ellipse_77-45" data-name="Ellipse 77" cx="3" cy="3" r="3" transform="translate(-199 1850) rotate(-180)" fill="#fff"/>
    <circle id="Ellipse_77-46" data-name="Ellipse 77" cx="3" cy="3" r="3" transform="translate(0 1823) rotate(-180)" fill="#fff"/>
    <circle id="Ellipse_77-47" data-name="Ellipse 77" cx="3" cy="3" r="3" transform="translate(-25 1823) rotate(-180)" fill="#fff"/>
    <circle id="Ellipse_77-48" data-name="Ellipse 77" cx="3" cy="3" r="3" transform="translate(-50 1823) rotate(-180)" fill="#fff"/>
    <circle id="Ellipse_77-49" data-name="Ellipse 77" cx="3" cy="3" r="3" transform="translate(-75 1823) rotate(-180)" fill="#fff"/>
    <ellipse id="Ellipse_77-50" data-name="Ellipse 77" cx="3.5" cy="3" rx="3.5" ry="3" transform="translate(-99 1823) rotate(-180)" fill="#fff"/>
    <circle id="Ellipse_77-51" data-name="Ellipse 77" cx="3" cy="3" r="3" transform="translate(-124 1823) rotate(-180)" fill="#fff"/>
    <circle id="Ellipse_77-52" data-name="Ellipse 77" cx="3" cy="3" r="3" transform="translate(-149 1823) rotate(-180)" fill="#fff"/>
    <circle id="Ellipse_77-53" data-name="Ellipse 77" cx="3" cy="3" r="3" transform="translate(-174 1823) rotate(-180)" fill="#fff"/>
    <circle id="Ellipse_77-54" data-name="Ellipse 77" cx="3" cy="3" r="3" transform="translate(-199 1823) rotate(-180)" fill="#fff"/>
    <circle id="Ellipse_77-55" data-name="Ellipse 77" cx="3" cy="3" r="3" transform="translate(0 1796) rotate(-180)" fill="#fff"/>
    <circle id="Ellipse_77-56" data-name="Ellipse 77" cx="3" cy="3" r="3" transform="translate(-25 1796) rotate(-180)" fill="#fff"/>
    <circle id="Ellipse_77-57" data-name="Ellipse 77" cx="3" cy="3" r="3" transform="translate(-50 1796) rotate(-180)" fill="#fff"/>
    <circle id="Ellipse_77-58" data-name="Ellipse 77" cx="3" cy="3" r="3" transform="translate(-75 1796) rotate(-180)" fill="#fff"/>
    <ellipse id="Ellipse_77-59" data-name="Ellipse 77" cx="3.5" cy="3" rx="3.5" ry="3" transform="translate(-99 1796) rotate(-180)" fill="#fff"/>
    <circle id="Ellipse_77-60" data-name="Ellipse 77" cx="3" cy="3" r="3" transform="translate(-124 1796) rotate(-180)" fill="#fff"/>
    <circle id="Ellipse_77-61" data-name="Ellipse 77" cx="3" cy="3" r="3" transform="translate(-149 1796) rotate(-180)" fill="#fff"/>
    <circle id="Ellipse_77-62" data-name="Ellipse 77" cx="3" cy="3" r="3" transform="translate(-174 1796) rotate(-180)" fill="#fff"/>
    <circle id="Ellipse_77-63" data-name="Ellipse 77" cx="3" cy="3" r="3" transform="translate(-199 1796) rotate(-180)" fill="#fff"/>
    <circle id="Ellipse_77-64" data-name="Ellipse 77" cx="3" cy="3" r="3" transform="translate(0 1769) rotate(-180)" fill="#fff"/>
    <circle id="Ellipse_77-65" data-name="Ellipse 77" cx="3" cy="3" r="3" transform="translate(-25 1769) rotate(-180)" fill="#fff"/>
    <circle id="Ellipse_77-66" data-name="Ellipse 77" cx="3" cy="3" r="3" transform="translate(-50 1769) rotate(-180)" fill="#fff"/>
    <circle id="Ellipse_77-67" data-name="Ellipse 77" cx="3" cy="3" r="3" transform="translate(-75 1769) rotate(-180)" fill="#fff"/>
    <ellipse id="Ellipse_77-68" data-name="Ellipse 77" cx="3.5" cy="3" rx="3.5" ry="3" transform="translate(-99 1769) rotate(-180)" fill="#fff"/>
    <circle id="Ellipse_77-69" data-name="Ellipse 77" cx="3" cy="3" r="3" transform="translate(-124 1769) rotate(-180)" fill="#fff"/>
    <circle id="Ellipse_77-70" data-name="Ellipse 77" cx="3" cy="3" r="3" transform="translate(-149 1769) rotate(-180)" fill="#fff"/>
    <circle id="Ellipse_77-71" data-name="Ellipse 77" cx="3" cy="3" r="3" transform="translate(-174 1769) rotate(-180)" fill="#fff"/>
    <circle id="Ellipse_77-72" data-name="Ellipse 77" cx="3" cy="3" r="3" transform="translate(-199 1769) rotate(-180)" fill="#fff"/>
    <circle id="Ellipse_77-73" data-name="Ellipse 77" cx="3" cy="3" r="3" transform="translate(0 1742) rotate(-180)" fill="#fff"/>
    <circle id="Ellipse_77-74" data-name="Ellipse 77" cx="3" cy="3" r="3" transform="translate(-25 1742) rotate(-180)" fill="#fff"/>
    <circle id="Ellipse_77-75" data-name="Ellipse 77" cx="3" cy="3" r="3" transform="translate(-50 1742) rotate(-180)" fill="#fff"/>
    <circle id="Ellipse_77-76" data-name="Ellipse 77" cx="3" cy="3" r="3" transform="translate(-75 1742) rotate(-180)" fill="#fff"/>
    <ellipse id="Ellipse_77-77" data-name="Ellipse 77" cx="3.5" cy="3" rx="3.5" ry="3" transform="translate(-99 1742) rotate(-180)" fill="#fff"/>
    <circle id="Ellipse_77-78" data-name="Ellipse 77" cx="3" cy="3" r="3" transform="translate(-124 1742) rotate(-180)" fill="#fff"/>
    <circle id="Ellipse_77-79" data-name="Ellipse 77" cx="3" cy="3" r="3" transform="translate(-149 1742) rotate(-180)" fill="#fff"/>
    <circle id="Ellipse_77-80" data-name="Ellipse 77" cx="3" cy="3" r="3" transform="translate(-174 1742) rotate(-180)" fill="#fff"/>
    <circle id="Ellipse_77-81" data-name="Ellipse 77" cx="3" cy="3" r="3" transform="translate(-199 1742) rotate(-180)" fill="#fff"/>
  </g>
</svg>
