<svg xmlns="http://www.w3.org/2000/svg" width="457.252" height="404.086" viewBox="0 0 457.252 404.086">
  <g id="Groupe_1530" data-name="Groupe 1530" transform="translate(-83.804 -470.914)">
    <g id="Groupe_1529" data-name="Groupe 1529">
      <g id="Groupe_761" data-name="Groupe 761" transform="translate(508 -1083)" opacity="0.232">
        <ellipse id="Ellipse_77" data-name="Ellipse 77" cx="3" cy="3.5" rx="3" ry="3.5" transform="translate(0 1958) rotate(-180)" fill="#fff"/>
        <ellipse id="Ellipse_77-2" data-name="Ellipse 77" cx="3" cy="3.5" rx="3" ry="3.5" transform="translate(-25 1958) rotate(-180)" fill="#fff"/>
        <ellipse id="Ellipse_77-3" data-name="Ellipse 77" cx="3" cy="3.5" rx="3" ry="3.5" transform="translate(-50 1958) rotate(-180)" fill="#fff"/>
        <ellipse id="Ellipse_77-4" data-name="Ellipse 77" cx="3" cy="3.5" rx="3" ry="3.5" transform="translate(-75 1958) rotate(-180)" fill="#fff"/>
        <circle id="Ellipse_77-5" data-name="Ellipse 77" cx="3.5" cy="3.5" r="3.5" transform="translate(-99 1958) rotate(-180)" fill="#fff"/>
        <ellipse id="Ellipse_77-6" data-name="Ellipse 77" cx="3" cy="3.5" rx="3" ry="3.5" transform="translate(-124 1958) rotate(-180)" fill="#fff"/>
        <ellipse id="Ellipse_77-7" data-name="Ellipse 77" cx="3" cy="3.5" rx="3" ry="3.5" transform="translate(-149 1958) rotate(-180)" fill="#fff"/>
        <ellipse id="Ellipse_77-8" data-name="Ellipse 77" cx="3" cy="3.5" rx="3" ry="3.5" transform="translate(-174 1958) rotate(-180)" fill="#fff"/>
        <ellipse id="Ellipse_77-9" data-name="Ellipse 77" cx="3" cy="3.5" rx="3" ry="3.5" transform="translate(-199 1958) rotate(-180)" fill="#fff"/>
        <ellipse id="Ellipse_77-10" data-name="Ellipse 77" cx="3" cy="3.5" rx="3" ry="3.5" transform="translate(0 1931) rotate(-180)" fill="#fff"/>
        <ellipse id="Ellipse_77-11" data-name="Ellipse 77" cx="3" cy="3.5" rx="3" ry="3.5" transform="translate(-25 1931) rotate(-180)" fill="#fff"/>
        <ellipse id="Ellipse_77-12" data-name="Ellipse 77" cx="3" cy="3.5" rx="3" ry="3.5" transform="translate(-50 1931) rotate(-180)" fill="#fff"/>
        <ellipse id="Ellipse_77-13" data-name="Ellipse 77" cx="3" cy="3.5" rx="3" ry="3.5" transform="translate(-75 1931) rotate(-180)" fill="#fff"/>
        <circle id="Ellipse_77-14" data-name="Ellipse 77" cx="3.5" cy="3.5" r="3.5" transform="translate(-99 1931) rotate(-180)" fill="#fff"/>
        <ellipse id="Ellipse_77-15" data-name="Ellipse 77" cx="3" cy="3.5" rx="3" ry="3.5" transform="translate(-124 1931) rotate(-180)" fill="#fff"/>
        <ellipse id="Ellipse_77-16" data-name="Ellipse 77" cx="3" cy="3.5" rx="3" ry="3.5" transform="translate(-149 1931) rotate(-180)" fill="#fff"/>
        <ellipse id="Ellipse_77-17" data-name="Ellipse 77" cx="3" cy="3.5" rx="3" ry="3.5" transform="translate(-174 1931) rotate(-180)" fill="#fff"/>
        <ellipse id="Ellipse_77-18" data-name="Ellipse 77" cx="3" cy="3.5" rx="3" ry="3.5" transform="translate(-199 1931) rotate(-180)" fill="#fff"/>
        <circle id="Ellipse_77-19" data-name="Ellipse 77" cx="3" cy="3" r="3" transform="translate(0 1904) rotate(-180)" fill="#fff"/>
        <circle id="Ellipse_77-20" data-name="Ellipse 77" cx="3" cy="3" r="3" transform="translate(-25 1904) rotate(-180)" fill="#fff"/>
        <circle id="Ellipse_77-21" data-name="Ellipse 77" cx="3" cy="3" r="3" transform="translate(-50 1904) rotate(-180)" fill="#fff"/>
        <circle id="Ellipse_77-22" data-name="Ellipse 77" cx="3" cy="3" r="3" transform="translate(-75 1904) rotate(-180)" fill="#fff"/>
        <ellipse id="Ellipse_77-23" data-name="Ellipse 77" cx="3.5" cy="3" rx="3.5" ry="3" transform="translate(-99 1904) rotate(-180)" fill="#fff"/>
        <circle id="Ellipse_77-24" data-name="Ellipse 77" cx="3" cy="3" r="3" transform="translate(-124 1904) rotate(-180)" fill="#fff"/>
        <circle id="Ellipse_77-25" data-name="Ellipse 77" cx="3" cy="3" r="3" transform="translate(-149 1904) rotate(-180)" fill="#fff"/>
        <circle id="Ellipse_77-26" data-name="Ellipse 77" cx="3" cy="3" r="3" transform="translate(-174 1904) rotate(-180)" fill="#fff"/>
        <circle id="Ellipse_77-27" data-name="Ellipse 77" cx="3" cy="3" r="3" transform="translate(-199 1904) rotate(-180)" fill="#fff"/>
        <circle id="Ellipse_77-28" data-name="Ellipse 77" cx="3" cy="3" r="3" transform="translate(0 1877) rotate(-180)" fill="#fff"/>
        <circle id="Ellipse_77-29" data-name="Ellipse 77" cx="3" cy="3" r="3" transform="translate(-25 1877) rotate(-180)" fill="#fff"/>
        <circle id="Ellipse_77-30" data-name="Ellipse 77" cx="3" cy="3" r="3" transform="translate(-50 1877) rotate(-180)" fill="#fff"/>
        <circle id="Ellipse_77-31" data-name="Ellipse 77" cx="3" cy="3" r="3" transform="translate(-75 1877) rotate(-180)" fill="#fff"/>
        <ellipse id="Ellipse_77-32" data-name="Ellipse 77" cx="3.5" cy="3" rx="3.5" ry="3" transform="translate(-99 1877) rotate(-180)" fill="#fff"/>
        <circle id="Ellipse_77-33" data-name="Ellipse 77" cx="3" cy="3" r="3" transform="translate(-124 1877) rotate(-180)" fill="#fff"/>
        <circle id="Ellipse_77-34" data-name="Ellipse 77" cx="3" cy="3" r="3" transform="translate(-149 1877) rotate(-180)" fill="#fff"/>
        <circle id="Ellipse_77-35" data-name="Ellipse 77" cx="3" cy="3" r="3" transform="translate(-174 1877) rotate(-180)" fill="#fff"/>
        <circle id="Ellipse_77-36" data-name="Ellipse 77" cx="3" cy="3" r="3" transform="translate(-199 1877) rotate(-180)" fill="#fff"/>
        <circle id="Ellipse_77-37" data-name="Ellipse 77" cx="3" cy="3" r="3" transform="translate(0 1850) rotate(-180)" fill="#fff"/>
        <circle id="Ellipse_77-38" data-name="Ellipse 77" cx="3" cy="3" r="3" transform="translate(-25 1850) rotate(-180)" fill="#fff"/>
        <circle id="Ellipse_77-39" data-name="Ellipse 77" cx="3" cy="3" r="3" transform="translate(-50 1850) rotate(-180)" fill="#fff"/>
        <circle id="Ellipse_77-40" data-name="Ellipse 77" cx="3" cy="3" r="3" transform="translate(-75 1850) rotate(-180)" fill="#fff"/>
        <ellipse id="Ellipse_77-41" data-name="Ellipse 77" cx="3.5" cy="3" rx="3.5" ry="3" transform="translate(-99 1850) rotate(-180)" fill="#fff"/>
        <circle id="Ellipse_77-42" data-name="Ellipse 77" cx="3" cy="3" r="3" transform="translate(-124 1850) rotate(-180)" fill="#fff"/>
        <circle id="Ellipse_77-43" data-name="Ellipse 77" cx="3" cy="3" r="3" transform="translate(-149 1850) rotate(-180)" fill="#fff"/>
        <circle id="Ellipse_77-44" data-name="Ellipse 77" cx="3" cy="3" r="3" transform="translate(-174 1850) rotate(-180)" fill="#fff"/>
        <circle id="Ellipse_77-45" data-name="Ellipse 77" cx="3" cy="3" r="3" transform="translate(-199 1850) rotate(-180)" fill="#fff"/>
        <circle id="Ellipse_77-46" data-name="Ellipse 77" cx="3" cy="3" r="3" transform="translate(0 1823) rotate(-180)" fill="#fff"/>
        <circle id="Ellipse_77-47" data-name="Ellipse 77" cx="3" cy="3" r="3" transform="translate(-25 1823) rotate(-180)" fill="#fff"/>
        <circle id="Ellipse_77-48" data-name="Ellipse 77" cx="3" cy="3" r="3" transform="translate(-50 1823) rotate(-180)" fill="#fff"/>
        <circle id="Ellipse_77-49" data-name="Ellipse 77" cx="3" cy="3" r="3" transform="translate(-75 1823) rotate(-180)" fill="#fff"/>
        <ellipse id="Ellipse_77-50" data-name="Ellipse 77" cx="3.5" cy="3" rx="3.5" ry="3" transform="translate(-99 1823) rotate(-180)" fill="#fff"/>
        <circle id="Ellipse_77-51" data-name="Ellipse 77" cx="3" cy="3" r="3" transform="translate(-124 1823) rotate(-180)" fill="#fff"/>
        <circle id="Ellipse_77-52" data-name="Ellipse 77" cx="3" cy="3" r="3" transform="translate(-149 1823) rotate(-180)" fill="#fff"/>
        <circle id="Ellipse_77-53" data-name="Ellipse 77" cx="3" cy="3" r="3" transform="translate(-174 1823) rotate(-180)" fill="#fff"/>
        <circle id="Ellipse_77-54" data-name="Ellipse 77" cx="3" cy="3" r="3" transform="translate(-199 1823) rotate(-180)" fill="#fff"/>
        <circle id="Ellipse_77-55" data-name="Ellipse 77" cx="3" cy="3" r="3" transform="translate(0 1796) rotate(-180)" fill="#fff"/>
        <circle id="Ellipse_77-56" data-name="Ellipse 77" cx="3" cy="3" r="3" transform="translate(-25 1796) rotate(-180)" fill="#fff"/>
        <circle id="Ellipse_77-57" data-name="Ellipse 77" cx="3" cy="3" r="3" transform="translate(-50 1796) rotate(-180)" fill="#fff"/>
        <circle id="Ellipse_77-58" data-name="Ellipse 77" cx="3" cy="3" r="3" transform="translate(-75 1796) rotate(-180)" fill="#fff"/>
        <ellipse id="Ellipse_77-59" data-name="Ellipse 77" cx="3.5" cy="3" rx="3.5" ry="3" transform="translate(-99 1796) rotate(-180)" fill="#fff"/>
        <circle id="Ellipse_77-60" data-name="Ellipse 77" cx="3" cy="3" r="3" transform="translate(-124 1796) rotate(-180)" fill="#fff"/>
        <circle id="Ellipse_77-61" data-name="Ellipse 77" cx="3" cy="3" r="3" transform="translate(-149 1796) rotate(-180)" fill="#fff"/>
        <circle id="Ellipse_77-62" data-name="Ellipse 77" cx="3" cy="3" r="3" transform="translate(-174 1796) rotate(-180)" fill="#fff"/>
        <circle id="Ellipse_77-63" data-name="Ellipse 77" cx="3" cy="3" r="3" transform="translate(-199 1796) rotate(-180)" fill="#fff"/>
        <circle id="Ellipse_77-64" data-name="Ellipse 77" cx="3" cy="3" r="3" transform="translate(0 1769) rotate(-180)" fill="#fff"/>
        <circle id="Ellipse_77-65" data-name="Ellipse 77" cx="3" cy="3" r="3" transform="translate(-25 1769) rotate(-180)" fill="#fff"/>
        <circle id="Ellipse_77-66" data-name="Ellipse 77" cx="3" cy="3" r="3" transform="translate(-50 1769) rotate(-180)" fill="#fff"/>
        <circle id="Ellipse_77-67" data-name="Ellipse 77" cx="3" cy="3" r="3" transform="translate(-75 1769) rotate(-180)" fill="#fff"/>
        <ellipse id="Ellipse_77-68" data-name="Ellipse 77" cx="3.5" cy="3" rx="3.5" ry="3" transform="translate(-99 1769) rotate(-180)" fill="#fff"/>
        <circle id="Ellipse_77-69" data-name="Ellipse 77" cx="3" cy="3" r="3" transform="translate(-124 1769) rotate(-180)" fill="#fff"/>
        <circle id="Ellipse_77-70" data-name="Ellipse 77" cx="3" cy="3" r="3" transform="translate(-149 1769) rotate(-180)" fill="#fff"/>
        <circle id="Ellipse_77-71" data-name="Ellipse 77" cx="3" cy="3" r="3" transform="translate(-174 1769) rotate(-180)" fill="#fff"/>
        <circle id="Ellipse_77-72" data-name="Ellipse 77" cx="3" cy="3" r="3" transform="translate(-199 1769) rotate(-180)" fill="#fff"/>
        <circle id="Ellipse_77-73" data-name="Ellipse 77" cx="3" cy="3" r="3" transform="translate(0 1742) rotate(-180)" fill="#fff"/>
        <circle id="Ellipse_77-74" data-name="Ellipse 77" cx="3" cy="3" r="3" transform="translate(-25 1742) rotate(-180)" fill="#fff"/>
        <circle id="Ellipse_77-75" data-name="Ellipse 77" cx="3" cy="3" r="3" transform="translate(-50 1742) rotate(-180)" fill="#fff"/>
        <circle id="Ellipse_77-76" data-name="Ellipse 77" cx="3" cy="3" r="3" transform="translate(-75 1742) rotate(-180)" fill="#fff"/>
        <ellipse id="Ellipse_77-77" data-name="Ellipse 77" cx="3.5" cy="3" rx="3.5" ry="3" transform="translate(-99 1742) rotate(-180)" fill="#fff"/>
        <circle id="Ellipse_77-78" data-name="Ellipse 77" cx="3" cy="3" r="3" transform="translate(-124 1742) rotate(-180)" fill="#fff"/>
        <circle id="Ellipse_77-79" data-name="Ellipse 77" cx="3" cy="3" r="3" transform="translate(-149 1742) rotate(-180)" fill="#fff"/>
        <circle id="Ellipse_77-80" data-name="Ellipse 77" cx="3" cy="3" r="3" transform="translate(-174 1742) rotate(-180)" fill="#fff"/>
        <circle id="Ellipse_77-81" data-name="Ellipse 77" cx="3" cy="3" r="3" transform="translate(-199 1742) rotate(-180)" fill="#fff"/>
      </g>
    </g>
    <g id="Groupe_812" data-name="Groupe 812" transform="translate(23.959 373.522)">
      <g id="Character" transform="translate(59.845 97.392)">
        <g id="Groupe_799" data-name="Groupe 799">
          <path id="Tracé_222" data-name="Tracé 222" d="M144.17,411.251l9.16-3.474-5.608-22.136-9.16,3.474Z" transform="translate(-46.474 -48.43)" fill="#b55b52"/>
          <path id="Tracé_223" data-name="Tracé 223" d="M84.527,410.979h9.8l1.468-22.686h-9.8Z" transform="translate(-55.653 -47.98)" fill="#b55b52"/>
          <path id="Tracé_224" data-name="Tracé 224" d="M95.811,406.715H83.866a.8.8,0,0,0-.8.669l-1.5,8.707a1.524,1.524,0,0,0,1.521,1.743c3.839-.067,6.633-.291,11.473-.291,2.977,0,11.972.309,16.084.309,4.021,0,4.447-4.065,2.744-4.434-7.63-1.652-13.431-3.928-15.956-6.1A2.488,2.488,0,0,0,95.811,406.715Z" transform="translate(-56.159 -44.85)" fill="#263238"/>
          <path id="Tracé_225" data-name="Tracé 225" d="M152.32,404.055l-10,3.794a.856.856,0,0,0-.543.922l1.279,8.828a1.427,1.427,0,0,0,1.936,1.13c3.584-1.431,6.627-3.244,11.193-4.883,5.338-1.917,10.636-3.966,14.957-6.719,3.391-2.161,1.963-6.251.364-5.608-7.28,2.922-9.065,3.883-16.706,2.413A4.541,4.541,0,0,0,152.32,404.055Z" transform="translate(-45.93 -45.745)" fill="#263238"/>
          <path id="Tracé_226" data-name="Tracé 226" d="M130.6,152.492c3.083,5.448,6.331,11.062,9.6,16.5,3.272,5.457,6.635,10.85,10.2,15.908.865,1.281,1.823,2.5,2.684,3.691a3.238,3.238,0,0,0,.76.882,2.83,2.83,0,0,0,1.777.278,12.293,12.293,0,0,0,3.272-.778,40.44,40.44,0,0,0,7.555-3.956c1.261-.829,2.542-1.685,3.8-2.592,1.235-.9,2.516-1.9,3.658-2.782l5.494,4.891a51.777,51.777,0,0,1-3.215,4.179c-1.117,1.33-2.279,2.639-3.543,3.873a46.029,46.029,0,0,1-4.022,3.593,34.2,34.2,0,0,1-4.716,3.208,23.657,23.657,0,0,1-5.946,2.42,15.978,15.978,0,0,1-7.9-.023,14.855,14.855,0,0,1-7.21-4.552c-1.175-1.362-2.322-2.632-3.393-3.976a184.914,184.914,0,0,1-11.813-16.435c-3.617-5.645-6.96-11.295-10.123-17.3Z" transform="translate(-50.049 -88.033)" fill="#b65b52"/>
          <g id="Groupe_793" data-name="Groupe 793" transform="translate(62.914 57.229)">
            <path id="Tracé_227" data-name="Tracé 227" d="M113.881,153.992c-2.642,8.986,15.953,33.484,15.953,33.484l18.749-12.065s-5.511-12.5-12.992-22.031C127.91,143.594,116.78,144.13,113.881,153.992Z" transform="translate(-113.624 -146.312)" fill="#407bff"/>
            <path id="Tracé_228" data-name="Tracé 228" d="M113.881,153.992c-2.642,8.986,15.953,33.484,15.953,33.484l18.749-12.065s-5.511-12.5-12.992-22.031C127.91,143.594,116.78,144.13,113.881,153.992Z" transform="translate(-113.624 -146.312)" opacity="0.2"/>
          </g>
          <path id="Tracé_229" data-name="Tracé 229" d="M124.692,161.921c3.857,1.648,9.532,10.936,12.486,17.819l-7.957,5.113a149.842,149.842,0,0,1-11.961-18.746C119.774,163.349,122.654,161.055,124.692,161.921Z" transform="translate(-50.092 -86.463)" opacity="0.2"/>
          <path id="Tracé_230" data-name="Tracé 230" d="M164.73,179.7l3.436-9.62,9.75,4.653s-2.024,8.58-9.159,8.566Z" transform="translate(-42.029 -85.045)" fill="#b55b52"/>
          <path id="Tracé_231" data-name="Tracé 231" d="M176.343,164.667l4.125,4.56-3.051,6.429L167.667,171Z" transform="translate(-41.53 -85.965)" fill="#b55b52"/>
          <path id="Tracé_232" data-name="Tracé 232" d="M147.722,385.647l2.892,11.409-9.164,3.476-2.892-11.409Z" transform="translate(-46.475 -48.429)" opacity="0.2"/>
          <path id="Tracé_233" data-name="Tracé 233" d="M85.89,388.3h9.8l-.761,11.694h-9.8Z" transform="translate(-55.55 -47.979)" opacity="0.2"/>
          <g id="Groupe_794" data-name="Groupe 794" transform="translate(19.504 55.76)">
            <path id="Tracé_234" data-name="Tracé 234" d="M76.517,150.231c10.552,37.212,8.824,76.7,9.484,84.718,7.678-.275,36.6-1.365,52.362-1.962,8.894-55.469-7.079-86.343-7.079-86.343s-3.36-.653-7.928-1.121c-1.434-.147-2.98-.276-4.588-.36-.889-.054-1.792-.082-2.708-.1a194.022,194.022,0,0,0-22.216,1.655c-1.393.173-2.811.383-4.181.606-1.273.218-2.521.448-3.7.684C80.633,149.071,76.517,150.231,76.517,150.231Z" transform="translate(-76.517 -145.056)" fill="#407bff"/>
            <path id="Tracé_235" data-name="Tracé 235" d="M76.517,150.231c10.552,37.212,8.824,76.7,9.484,84.718,7.678-.275,36.6-1.365,52.362-1.962,8.894-55.469-7.079-86.343-7.079-86.343s-3.36-.653-7.928-1.121c-1.434-.147-2.98-.276-4.588-.36-.889-.054-1.792-.082-2.708-.1a194.022,194.022,0,0,0-22.216,1.655c-1.393.173-2.811.383-4.181.606-1.273.218-2.521.448-3.7.684C80.633,149.071,76.517,150.231,76.517,150.231Z" transform="translate(-76.517 -145.056)" opacity="0.2"/>
          </g>
          <path id="Tracé_236" data-name="Tracé 236" d="M86.916,163.126c.941,3.6-.133,20.027-3.893,24.079-.512-5.261-1.2-10.752-2.1-16.366Z" transform="translate(-56.265 -86.227)" opacity="0.2"/>
          <path id="Tracé_237" data-name="Tracé 237" d="M91.67,124.956c1.933,7.043,4.306,20.033-.339,25.174,4.172,3.572,9.581,7.656,18.091,7.322s6.591-6.061,4.121-8.974c-8.112-1.31-8.346-7.239-7.371-12.9Z" transform="translate(-54.497 -92.71)" fill="#b55b52"/>
          <g id="Groupe_795" data-name="Groupe 795" transform="translate(32.885 54.907)">
            <path id="Tracé_238" data-name="Tracé 238" d="M107.575,151.7l1.545,1.045-5.639,1.642,1.452-2.61Z" transform="translate(-85.318 -143.074)" fill="#407bff"/>
            <path id="Tracé_239" data-name="Tracé 239" d="M108.884,151.229l-.583,1.594,5.662,1.642-.382-3.029Z" transform="translate(-84.5 -143.154)" fill="#407bff"/>
            <path id="Tracé_240" data-name="Tracé 240" d="M88.519,146.209l2.229-1.118a2.142,2.142,0,0,1,2.239.189,44.472,44.472,0,0,0,17.225,7.58c-4.475,2.136-3.367,7.866-3.367,7.866s-14.215-4.688-18.779-13.175A.994.994,0,0,1,88.519,146.209Z" transform="translate(-87.956 -144.236)" fill="#fff"/>
            <path id="Tracé_241" data-name="Tracé 241" d="M113.061,144.824l-3.267-.493a.433.433,0,0,0-.418.68c1.143,1.618,3.037,5.2-.577,7.39,4.476,2.136,5.867,7.363,5.867,7.363s5.826-6.287-.966-14.579A1.036,1.036,0,0,0,113.061,144.824Z" transform="translate(-84.415 -144.327)" fill="#fff"/>
          </g>
          <path id="Tracé_242" data-name="Tracé 242" d="M96.693,128.663l8.583,6.285a22.872,22.872,0,0,0-.392,3.994c-3.077-.214-7.508-3.245-8.069-6.409A10.741,10.741,0,0,1,96.693,128.663Z" transform="translate(-53.607 -92.081)" opacity="0.2"/>
          <path id="Tracé_243" data-name="Tracé 243" d="M114.086,113.918c-.392,3.4-3.655,6.33-5.766,7.062l-2.63-14.809C111.6,102.007,114.637,109.14,114.086,113.918Z" transform="translate(-52.058 -96.114)" fill="#263238"/>
          <path id="Tracé_244" data-name="Tracé 244" d="M89.122,118.388c1.7,9.572,2.213,15.261,7.652,19.648,8.182,6.6,19.573.813,20.764-9.075,1.073-8.9-1.893-23.058-11.771-25.807A13.26,13.26,0,0,0,89.122,118.388Z" transform="translate(-54.909 -96.501)" fill="#b55b52"/>
          <path id="Tracé_245" data-name="Tracé 245" d="M91.955,125.733c4.433,2.356,6.386-2.94,6.424-5.085.061-3.42-1.42-7.17-3.186-8.542,8.559-.051,25.492-.423,21.221-8.577s-12.825-7.22-19.273-2.763c-3.408,2.356-14.428.305-11.7,6.662C79.7,110.478,84.683,121.869,91.955,125.733Z" transform="translate(-55.922 -97.392)" fill="#263238"/>
          <path id="Tracé_246" data-name="Tracé 246" d="M86.5,105.729a7,7,0,0,1-4.224-1.438,4.006,4.006,0,0,0,3.739,3.1Z" transform="translate(-56.035 -96.221)" fill="#263238"/>
          <path id="Tracé_247" data-name="Tracé 247" d="M86.088,123.737a9.248,9.248,0,0,0,5.34,4.615c3.084,1,3.79-1.831,3.043-4.808-.674-2.68-2.127-6.329-5.274-6.029C86.1,117.809,84.766,121.046,86.088,123.737Z" transform="translate(-55.474 -93.977)" fill="#b55b52"/>
          <path id="Tracé_248" data-name="Tracé 248" d="M145.788,323.787c-3.982-29.633-11.407-103.563-11.407-103.563l-34.422,1.29s16.235,73.883,22.112,103.838,22.218,102.261,22.218,102.261l15.512-5.875S149.932,354.6,145.788,323.787Z" transform="translate(-53.031 -76.528)" fill="#263238"/>
          <path id="Tracé_249" data-name="Tracé 249" d="M112.056,238.354a18.12,18.12,0,0,0-7.652,3.917c3.246,14.939,7.494,34.6,11.143,51.931C118.036,279.19,118.11,250.863,112.056,238.354Z" transform="translate(-52.276 -73.448)" opacity="0.2"/>
          <path id="Tracé_250" data-name="Tracé 250" d="M118.871,220.819s-7.3,80.2-10.649,108.709c-3.663,31.219-8.238,96.647-8.238,96.647H82.041s-.744-57.867,1.589-88.426c2.657-34.809,1.455-115.659,1.455-115.659Z" transform="translate(-56.094 -76.427)" fill="#263238"/>
          <path id="Tracé_251" data-name="Tracé 251" d="M102.533,397.666H81.4l-.444-6.312,23.589-.411Z" transform="translate(-56.258 -47.529)" fill="#407bff"/>
          <path id="Tracé_252" data-name="Tracé 252" d="M155.907,393.188l-18.483,7.01-2.265-5.971,20.541-8.15Z" transform="translate(-47.052 -48.356)" fill="#407bff"/>
          <path id="Tracé_253" data-name="Tracé 253" d="M101.858,117.186c.09.785.579,1.373,1.093,1.315s.855-.744.765-1.529-.579-1.373-1.093-1.314S101.767,116.4,101.858,117.186Z" transform="translate(-52.711 -94.29)" fill="#263238"/>
          <path id="Tracé_254" data-name="Tracé 254" d="M109.442,116.312c.09.785.579,1.373,1.093,1.315s.856-.744.765-1.529-.579-1.373-1.093-1.314S109.352,115.527,109.442,116.312Z" transform="translate(-51.423 -94.439)" fill="#263238"/>
          <path id="Tracé_255" data-name="Tracé 255" d="M107.067,116.7s2.307,4.323,4.524,6.281c-1.24,1.456-3.669,1.136-3.669,1.136Z" transform="translate(-51.824 -94.112)" fill="#a02724"/>
          <path id="Tracé_256" data-name="Tracé 256" d="M105.871,125.517a6.512,6.512,0,0,1-4.731-2.061.233.233,0,0,1,.358-.3,6.27,6.27,0,0,0,5.35,1.847.232.232,0,1,1,.053.461A7.454,7.454,0,0,1,105.871,125.517Z" transform="translate(-52.84 -93.03)" fill="#263238"/>
          <path id="Tracé_257" data-name="Tracé 257" d="M99.3,115.225a.46.46,0,0,1-.227-.064.465.465,0,0,1-.164-.635,4.6,4.6,0,0,1,3.534-2.335.464.464,0,0,1,.043.927h0A3.68,3.68,0,0,0,99.71,115,.464.464,0,0,1,99.3,115.225Z" transform="translate(-53.22 -94.879)" fill="#263238"/>
          <path id="Tracé_258" data-name="Tracé 258" d="M112.941,113.53a.463.463,0,0,1-.383-.214,3.681,3.681,0,0,0-2.84-1.785.464.464,0,0,1,.012-.928,4.612,4.612,0,0,1,3.611,2.213.464.464,0,0,1-.4.714Z" transform="translate(-51.451 -95.148)" fill="#263238"/>
          <g id="Groupe_796" data-name="Groupe 796" transform="translate(40.206 354.113)">
            <path id="Tracé_259" data-name="Tracé 259" d="M96.983,408.538a11.8,11.8,0,0,1-2.581-.351.251.251,0,0,1-.185-.188.222.222,0,0,1,.095-.234c.346-.223,3.41-2.164,4.52-1.609a.787.787,0,0,1,.431.656,1.336,1.336,0,0,1-.419,1.226A2.856,2.856,0,0,1,96.983,408.538Zm-1.924-.677c1.68.333,2.956.273,3.47-.177a.907.907,0,0,0,.273-.842.3.3,0,0,0-.16-.273C98.064,406.28,96.306,407.118,95.059,407.861Z" transform="translate(-94.213 -399.075)" fill="#407bff"/>
            <path id="Tracé_260" data-name="Tracé 260" d="M94.456,408.527a.246.246,0,0,1-.243-.25c0-.119.1-2.946,1.19-3.876a1.219,1.219,0,0,1,.973-.3h0a.806.806,0,0,1,.769.608c.261,1.091-1.592,3.238-2.578,3.788A.227.227,0,0,1,94.456,408.527Zm1.781-3.971a.783.783,0,0,0-.523.2c-.7.6-.931,2.244-1,3.069.97-.765,2.138-2.387,1.984-3.032-.014-.058-.048-.2-.351-.234h0A.8.8,0,0,0,96.237,404.556Z" transform="translate(-94.213 -399.409)" fill="#407bff"/>
            <path id="Tracé_261" data-name="Tracé 261" d="M152,405.024a.232.232,0,0,1-.179-.387c.335-.372,3.308-3.636,4.656-3.437a.736.736,0,0,1,.578.441h0a1.3,1.3,0,0,1-.007,1.21c-.667,1.271-3.429,1.906-5.016,2.171Zm4.318-3.37c-.781.022-2.489,1.541-3.679,2.784,2.15-.431,3.624-1.09,4-1.8a.846.846,0,0,0,0-.8.277.277,0,0,0-.226-.179A.462.462,0,0,0,156.32,401.653Z" transform="translate(-84.437 -399.902)" fill="#407bff"/>
            <path id="Tracé_262" data-name="Tracé 262" d="M152.044,405.211a.209.209,0,0,1-.066-.007.233.233,0,0,1-.165-.164c-.029-.108-.718-2.669.084-4.068a1.7,1.7,0,0,1,1.062-.828h0c.619-.165.907.071,1.038.3.56.973-.879,3.785-1.8,4.7A.234.234,0,0,1,152.044,405.211Zm1.274-4.657a1.023,1.023,0,0,0-.239.039h0a1.232,1.232,0,0,0-.779.612,5.44,5.44,0,0,0-.138,3.283c.872-1.105,1.77-3.228,1.433-3.81C153.576,400.64,153.522,400.548,153.318,400.553Zm-.3-.185h0Z" transform="translate(-84.48 -400.089)" fill="#407bff"/>
          </g>
          <g id="Groupe_798" data-name="Groupe 798" transform="translate(0 60.078)">
            <path id="Tracé_263" data-name="Tracé 263" d="M90.12,162.3c-2.939,6.054-5.934,12.3-8.837,18.455-1.44,3.094-2.886,6.18-4.249,9.281L75,194.683l-.97,2.323-.242.581-.17.432c-.12.276-.2.557-.3.835a14.182,14.182,0,0,0-.384,7.116,24.455,24.455,0,0,0,3.085,7.782,48.306,48.306,0,0,0,5.57,7.54c1.063,1.214,2.178,2.406,3.35,3.548.585.571,1.182,1.132,1.788,1.678.581.545,1.244,1.129,1.761,1.578l-3.9,6.234a48.1,48.1,0,0,1-4.905-2.87c-1.555-1.024-3.079-2.106-4.555-3.274a50.417,50.417,0,0,1-8.174-8.138,34.244,34.244,0,0,1-5.91-10.952,26.317,26.317,0,0,1-.566-13.542c.14-.557.266-1.123.439-1.668l.45-1.451.831-2.578c.576-1.7,1.145-3.41,1.778-5.08,1.228-3.362,2.514-6.682,3.9-9.953,2.734-6.58,5.693-12.926,9.037-19.3Z" transform="translate(-59.845 -147.596)" fill="#b65b52"/>
            <g id="Groupe_797" data-name="Groupe 797" transform="translate(1.778)">
              <path id="Tracé_264" data-name="Tracé 264" d="M79.093,149.606c-8.939,2.8-17.728,33.106-17.728,33.106l20.681,9.051s6.689-14.645,10.536-26.123C96.772,153.137,89.92,146.215,79.093,149.606Z" transform="translate(-61.365 -148.747)" fill="#407bff"/>
              <path id="Tracé_265" data-name="Tracé 265" d="M79.093,149.606c-8.939,2.8-17.728,33.106-17.728,33.106l20.681,9.051s6.689-14.645,10.536-26.123C96.772,153.137,89.92,146.215,79.093,149.606Z" transform="translate(-61.365 -148.747)" opacity="0.2"/>
            </g>
            <path id="Tracé_266" data-name="Tracé 266" d="M83.223,215.915,91.776,221l-8.319,8.281s-7.225-5.557-5.07-9.911Z" transform="translate(-56.764 -137.338)" fill="#b55b52"/>
            <path id="Tracé_267" data-name="Tracé 267" d="M96.692,228.368l-8.579,6.009-5.45-5.835,8.319-8.282Z" transform="translate(-55.969 -136.6)" fill="#b55b52"/>
          </g>
        </g>
      </g>
      <g id="Screen" transform="translate(179.298 153.025)">
        <g id="Groupe_811" data-name="Groupe 811">
          <g id="Groupe_800" data-name="Groupe 800">
            <rect id="Rectangle_150" data-name="Rectangle 150" width="5.654" height="1.171" transform="matrix(0.072, -0.997, 0.997, 0.072, 334.689, 86.478)" fill="#407bff"/>
            <rect id="Rectangle_151" data-name="Rectangle 151" width="16.39" height="1.171" transform="translate(335.447 75.853) rotate(-85.856)" fill="#407bff"/>
            <path id="Tracé_268" data-name="Tracé 268" d="M466.081,388.293H179.539a14.661,14.661,0,0,1-14.779-15.919l15.161-211.507a17.432,17.432,0,0,1,17.06-15.919H483.524A14.661,14.661,0,0,1,498.3,160.866l-15.16,211.507A17.432,17.432,0,0,1,466.081,388.293Z" transform="translate(-161.484 -144.947)" fill="#407bff"/>
            <path id="Tracé_269" data-name="Tracé 269" d="M381.26,432.926H288.251L271.673,318h93.008Z" transform="translate(-143.317 -115.553)" fill="#fff"/>
            <path id="Tracé_270" data-name="Tracé 270" d="M367.622,410.384H267.011l-2,6.848H365.625Z" transform="translate(-144.448 -99.86)" fill="#fff"/>
            <path id="Tracé_271" data-name="Tracé 271" d="M369.591,373.323,278.94,368.37,271.673,318h89.937Z" transform="translate(-143.317 -115.553)" fill="#e3f0ff"/>
            <path id="Tracé_272" data-name="Tracé 272" d="M463.316,388.293H176.774a14.661,14.661,0,0,1-14.779-15.919l15.161-211.507a17.432,17.432,0,0,1,17.06-15.919H480.759a14.661,14.661,0,0,1,14.778,15.919l-15.16,211.507A17.432,17.432,0,0,1,463.316,388.293Z" transform="translate(-161.954 -144.947)" fill="#fff"/>
            <rect id="Rectangle_152" data-name="Rectangle 152" width="121.647" height="1.118" transform="matrix(0.072, -0.997, 0.997, 0.072, 324.173, 139.308)" fill="#fff"/>
            <rect id="Rectangle_153" data-name="Rectangle 153" width="42.121" height="1.118" transform="translate(320.411 191.862) rotate(-85.901)" fill="#fff"/>
          </g>
          <g id="Groupe_810" data-name="Groupe 810" transform="translate(3.272 3.959)">
            <g id="Groupe_801" data-name="Groupe 801" transform="translate(1.186)">
              <path id="Tracé_273" data-name="Tracé 273" d="M462.063,383.76H177.3a11.411,11.411,0,0,1-11.5-12.39l15.1-210.648a13.567,13.567,0,0,1,13.279-12.391H478.938a11.412,11.412,0,0,1,11.5,12.391l-15.1,210.648A13.567,13.567,0,0,1,462.063,383.76Z" transform="translate(-165.765 -148.331)" fill="#fff"/>
              <path id="Tracé_274" data-name="Tracé 274" d="M462.063,383.76H177.3a11.411,11.411,0,0,1-11.5-12.39l15.1-210.648a13.567,13.567,0,0,1,13.279-12.391H478.938a11.412,11.412,0,0,1,11.5,12.391l-15.1,210.648A13.567,13.567,0,0,1,462.063,383.76Z" transform="translate(-165.765 -148.331)" fill="#407bff" opacity="0.2"/>
              <path id="Tracé_275" data-name="Tracé 275" d="M248.528,373.069h-66.5a5.513,5.513,0,0,1-5.557-5.987L191.145,162.3a6.555,6.555,0,0,1,6.416-5.986h66.5a5.512,5.512,0,0,1,5.557,5.986L254.944,367.081A6.556,6.556,0,0,1,248.528,373.069Z" transform="translate(-163.949 -146.975)" fill="#fff" opacity="0.5"/>
            </g>
            <path id="Tracé_276" data-name="Tracé 276" d="M241.589,183.321h-34.42a4.966,4.966,0,0,1-5.006-5.392l.379-5.278a5.9,5.9,0,0,1,5.779-5.392H242.74a4.965,4.965,0,0,1,5.006,5.392l-.378,5.278A5.905,5.905,0,0,1,241.589,183.321Z" transform="translate(-158.399 -145.116)" fill="#407bff" opacity="0.4"/>
            <g id="Groupe_802" data-name="Groupe 802" transform="translate(0 49.678)">
              <path id="Tracé_277" data-name="Tracé 277" d="M226.056,262.16H173.509a8.664,8.664,0,0,1-8.733-9.408l3.766-52.548a10.3,10.3,0,0,1,10.083-9.408h52.547a8.665,8.665,0,0,1,8.734,9.408l-3.767,52.548A10.3,10.3,0,0,1,226.056,262.16Z" transform="translate(-164.751 -190.796)" fill="#407bff"/>
              <path id="Tracé_278" data-name="Tracé 278" d="M224.234,214.971a3.927,3.927,0,0,0-3.843,3.586l-.546,7.63a3.3,3.3,0,0,0,3.328,3.586h5.335a.972.972,0,0,0,.953-.889l.934-13.023a.817.817,0,0,0-.826-.889Z" transform="translate(-155.395 -186.69)" fill="#fff"/>
              <path id="Tracé_279" data-name="Tracé 279" d="M211.268,202.646H178.145a1.324,1.324,0,0,1-1.335-1.438h0a1.575,1.575,0,0,1,1.541-1.438h33.122a1.324,1.324,0,0,1,1.335,1.438h0A1.575,1.575,0,0,1,211.268,202.646Z" transform="translate(-162.703 -189.272)" fill="#fff"/>
              <path id="Tracé_280" data-name="Tracé 280" d="M210.818,208.9H177.7a1.324,1.324,0,0,1-1.334-1.438h0a1.574,1.574,0,0,1,1.541-1.438h33.121a1.324,1.324,0,0,1,1.335,1.438h0A1.574,1.574,0,0,1,210.818,208.9Z" transform="translate(-162.78 -188.209)" fill="#fff"/>
              <path id="Tracé_281" data-name="Tracé 281" d="M198.926,215.156H177.248a1.324,1.324,0,0,1-1.335-1.438h0a1.575,1.575,0,0,1,1.541-1.438h21.678a1.324,1.324,0,0,1,1.335,1.438h0A1.575,1.575,0,0,1,198.926,215.156Z" transform="translate(-162.856 -187.147)" fill="#fff"/>
              <path id="Tracé_282" data-name="Tracé 282" d="M211.821,248.77H179.777a5.664,5.664,0,0,1-5.709-6.15l1.206-16.836a6.735,6.735,0,0,1,6.591-6.149H213.91a5.663,5.663,0,0,1,5.709,6.149l-1.207,16.836A6.733,6.733,0,0,1,211.821,248.77Z" transform="translate(-163.171 -185.897)" fill="#fff" opacity="0.5"/>
            </g>
            <g id="Groupe_803" data-name="Groupe 803" transform="translate(32.074 135.39)">
              <path id="Tracé_283" data-name="Tracé 283" d="M238.061,269.4H198.189a2.456,2.456,0,0,1-2.475-2.666h0a2.919,2.919,0,0,1,2.858-2.666h39.871a2.456,2.456,0,0,1,2.475,2.666h0A2.92,2.92,0,0,1,238.061,269.4Z" transform="translate(-191.567 -264.063)" fill="#407bff" opacity="0.4"/>
              <path id="Tracé_284" data-name="Tracé 284" d="M229.076,278.341h-25.3a2.456,2.456,0,0,1-2.475-2.666h0a2.92,2.92,0,0,1,2.858-2.667h25.3a2.457,2.457,0,0,1,2.475,2.667h0A2.92,2.92,0,0,1,229.076,278.341Z" transform="translate(-190.618 -262.544)" fill="#fff" opacity="0.8"/>
              <path id="Tracé_285" data-name="Tracé 285" d="M236.291,294.082H196.419a2.456,2.456,0,0,1-2.475-2.666h0a2.919,2.919,0,0,1,2.858-2.666h39.871a2.455,2.455,0,0,1,2.475,2.666h0A2.919,2.919,0,0,1,236.291,294.082Z" transform="translate(-191.868 -259.87)" fill="#407bff" opacity="0.4"/>
              <path id="Tracé_286" data-name="Tracé 286" d="M227.307,303.028h-25.3a2.455,2.455,0,0,1-2.475-2.666h0a2.919,2.919,0,0,1,2.857-2.666h25.3a2.455,2.455,0,0,1,2.475,2.666h0A2.919,2.919,0,0,1,227.307,303.028Z" transform="translate(-190.919 -258.35)" fill="#fff" opacity="0.8"/>
              <path id="Tracé_287" data-name="Tracé 287" d="M234.522,318.769H194.65a2.455,2.455,0,0,1-2.475-2.666h0a2.919,2.919,0,0,1,2.858-2.666H234.9a2.456,2.456,0,0,1,2.475,2.666h0A2.919,2.919,0,0,1,234.522,318.769Z" transform="translate(-192.168 -255.676)" fill="#407bff" opacity="0.4"/>
              <path id="Tracé_288" data-name="Tracé 288" d="M225.537,327.716h-25.3a2.456,2.456,0,0,1-2.475-2.667h0a2.919,2.919,0,0,1,2.858-2.666h25.3a2.456,2.456,0,0,1,2.475,2.666h0A2.92,2.92,0,0,1,225.537,327.716Z" transform="translate(-191.219 -254.157)" fill="#fff" opacity="0.8"/>
            </g>
            <g id="Groupe_805" data-name="Groupe 805" transform="translate(100.788 135.877)">
              <path id="Tracé_289" data-name="Tracé 289" d="M450.69,292.4c1.729-2.637,5.691-1.522,5.473,1.531l-3.837,53.521c-.2,2.757-2.279,5-4.643,5H254.847c-2.364,0-4.125-2.24-3.927-5l2.28-31.8a6.9,6.9,0,0,1,8.684-6.127c10.868,3.388,20.181,1.4,28.836-2.892,18.512-9.19,34-28.913,55.282-28.913.815,0,1.619.021,2.4.073,31.656,1.91,41.3,41.231,65.825,41.231,7.248,0,13.865-3.128,19.627-7.589C440.91,305.976,446.672,298.526,450.69,292.4Z" transform="translate(-250.905 -262.23)" fill="#407bff" opacity="0.5"/>
              <path id="Tracé_290" data-name="Tracé 290" d="M454.691,316.7l-2.365,33c-.2,2.757-2.279,5-4.643,5H254.847c-2.364,0-4.125-2.24-3.927-5l4.7-65.579c.322-4.492,6.21-6.382,8.593-2.747,6.152,9.386,15.619,21.509,26.507,27.508a27.1,27.1,0,0,0,13.025,3.686c15.581,0,28.832-18.484,44.657-32.527,9.7-8.611,20.373-15.561,33.135-15.561,26.641,0,30.571,43.286,52.316,49.2,4.193,1.146,9.043.9,14.85-1.322A4.32,4.32,0,0,1,454.691,316.7Z" transform="translate(-250.905 -264.479)" fill="#407bff" opacity="0.5"/>
              <g id="Groupe_804" data-name="Groupe 804" transform="translate(1.176 36.138)" opacity="0.8">
                <path id="Tracé_291" data-name="Tracé 291" d="M425.968,298.3a.429.429,0,0,1-.281-.117.292.292,0,0,1-.082-.129.362.362,0,0,1-.036-.152.384.384,0,0,1,.118-.281.391.391,0,0,1,.56,0,.36.36,0,0,1,.118.281.626.626,0,0,1-.025.152.466.466,0,0,1-.094.129A.4.4,0,0,1,425.968,298.3Z" transform="translate(-222.412 -295.008)" fill="#fff"/>
                <path id="Tracé_292" data-name="Tracé 292" d="M267.4,326.066a.394.394,0,0,1-.4-.4h0a.392.392,0,0,1,.4-.386v-.012a.4.4,0,0,1,.4.4h0a.4.4,0,0,1-.4.409h0Zm-4.013-.221h.012a.389.389,0,0,1-.363-.433h0a.4.4,0,0,1,.445-.351h0a.4.4,0,0,1,.351.433h0a.4.4,0,0,1-.4.363h0A.087.087,0,0,1,263.391,325.845Zm7.569-.351a.4.4,0,0,1,.35-.445h0a.4.4,0,0,1,.445.351h0a.4.4,0,0,1-.35.445h-.047A.4.4,0,0,1,270.96,325.494Zm-11.523-.259a.419.419,0,0,1-.316-.478h0a.421.421,0,0,1,.48-.316h0a.422.422,0,0,1,.316.48h0a.411.411,0,0,1-.4.315h-.081Zm15.43-.4a.4.4,0,0,1,.292-.491h0a.408.408,0,0,1,.48.292h0a.413.413,0,0,1-.292.491h0v-.012h0a.294.294,0,0,1-.094.012h0A.381.381,0,0,1,274.867,324.839ZM402.815,325a.4.4,0,0,1-.4-.4h0a.4.4,0,0,1,.4-.4h0a.393.393,0,0,1,.4.4h0a.394.394,0,0,1-.4.4Zm3.568-.562a.387.387,0,0,1,.351-.433h0a.389.389,0,0,1,.445.35h0a.4.4,0,0,1-.363.445h-.035A.4.4,0,0,1,406.383,324.441Zm-7.569.316a.389.389,0,0,1-.339-.446h0a.4.4,0,0,1,.445-.35h0a.409.409,0,0,1,.35.445h0a.411.411,0,0,1-.4.363h0A.105.105,0,0,1,398.814,324.757Zm-143.261-.48a.4.4,0,0,1-.281-.491h0a.415.415,0,0,1,.5-.281h0a.409.409,0,0,1,.269.5h0a.39.39,0,0,1-.386.281h0A.32.32,0,0,1,255.553,324.277Zm154.761-.386a.386.386,0,0,1,.315-.468h0a.4.4,0,0,1,.469.316h0a.4.4,0,0,1-.316.468h0c-.023,0-.047.011-.07.011h0A.41.41,0,0,1,410.314,323.891Zm-15.432.14a.382.382,0,0,1-.292-.48h0a.4.4,0,0,1,.481-.292h0a.4.4,0,0,1,.292.48h0a.4.4,0,0,1-.386.3h0A.236.236,0,0,1,394.882,324.032ZM278.658,323.7a.391.391,0,0,1,.234-.516h0a.4.4,0,0,1,.514.223h0a.4.4,0,0,1-.233.514h0a.3.3,0,0,1-.14.036h0A.407.407,0,0,1,278.658,323.7Zm135.527-.69a.4.4,0,0,1,.282-.5h0a.4.4,0,0,1,.491.282h0a.4.4,0,0,1-.281.49h0a.313.313,0,0,1-.105.025h0A.4.4,0,0,1,414.185,323.014Zm-23.139-.14h0a.4.4,0,0,1-.246-.5h0a.409.409,0,0,1,.515-.246h0a.409.409,0,0,1,.246.515h0a.406.406,0,0,1-.386.256h0A.238.238,0,0,1,391.046,322.874Zm-108.75-.749a.4.4,0,0,1,.175-.539h0a.41.41,0,0,1,.537.188h0a.39.39,0,0,1-.174.526h0a.346.346,0,0,1-.187.047h0A.4.4,0,0,1,282.3,322.125Zm135.691-.281a.388.388,0,0,1,.235-.5l.011-.011a.407.407,0,0,1,.5.246h0a.4.4,0,0,1-.246.515h0a.5.5,0,0,1-.129.022h0A.4.4,0,0,1,417.987,321.844Zm-30.637-.491h0a.394.394,0,0,1-.2-.526h0a.408.408,0,0,1,.526-.2h0a.4.4,0,0,1,.2.538h0a.413.413,0,0,1-.363.234h0A.276.276,0,0,1,387.349,321.353Zm34.347-.913a.393.393,0,0,1,.222-.516h0a.377.377,0,0,1,.515.212h0a.393.393,0,0,1-.212.526h0a.338.338,0,0,1-.151.023h0A.408.408,0,0,1,421.7,320.44Zm-135.938-.234a.412.412,0,0,1,.129-.562h0a.4.4,0,0,1,.55.128h0a.4.4,0,0,1-.129.551h0a.351.351,0,0,1-.211.07h0A.422.422,0,0,1,285.759,320.206Zm98.023-.643h0a.406.406,0,0,1-.165-.55h0a.411.411,0,0,1,.551-.152h0a.4.4,0,0,1,.152.538h0a.41.41,0,0,1-.351.211h0A.572.572,0,0,1,383.781,319.563Zm41.553-.725a.4.4,0,0,1,.187-.528h0a.407.407,0,0,1,.538.188h0a.4.4,0,0,1-.2.526h0l.012.012h0a.469.469,0,0,1-.175.035h0A.391.391,0,0,1,425.335,318.837Zm-136.278-.831a.409.409,0,0,1,.094-.562h0a.408.408,0,0,1,.563.082h0a.41.41,0,0,1-.094.562h0a.438.438,0,0,1-.234.081h0A.411.411,0,0,1,289.056,318.007Zm91.274-.445v-.012h0a.383.383,0,0,1-.129-.538h0a.376.376,0,0,1,.538-.14h0a.393.393,0,0,1,.14.55h0a.409.409,0,0,1-.339.2h0A.438.438,0,0,1,380.33,317.562Zm48.561-.5a.394.394,0,0,1,.163-.538h0a.4.4,0,0,1,.539.164h0a.407.407,0,0,1-.164.55h0a.551.551,0,0,1-.188.047h0A.4.4,0,0,1,428.891,317.059ZM292.24,315.609a.394.394,0,0,1,.059-.562h0a.4.4,0,0,1,.56.058h0a.416.416,0,0,1-.057.572h0a.422.422,0,0,1-.257.083h0A.356.356,0,0,1,292.24,315.609Zm84.721-.176v-.012h0a.4.4,0,0,1-.117-.55h0a.412.412,0,0,1,.562-.117h0a.41.41,0,0,1,.117.55h0a.394.394,0,0,1-.34.186h0A.482.482,0,0,1,376.961,315.433Zm55.4-.292a.4.4,0,0,1,.142-.55h0a.413.413,0,0,1,.55.14h0a.413.413,0,0,1-.14.55h0a.477.477,0,0,1-.211.059h0A.4.4,0,0,1,432.364,315.141Zm-58.714-1.919a.411.411,0,0,1-.105-.563h0a.421.421,0,0,1,.562-.1h0a.421.421,0,0,1,.105.562h0a.412.412,0,0,1-.34.175h0A.413.413,0,0,1,373.65,313.222Zm62.108-.14a.417.417,0,0,1,.129-.563h0a.4.4,0,0,1,.55.13h0a.4.4,0,0,1-.129.549h0a.327.327,0,0,1-.211.071h0A.425.425,0,0,1,435.758,313.082Zm-140.442.022a.4.4,0,0,1,.047-.56h0a.418.418,0,0,1,.573.047h0a.393.393,0,0,1-.06.56h0a.343.343,0,0,1-.256.094h0A.41.41,0,0,1,295.316,313.1Zm143.775-2.2a.408.408,0,0,1,.094-.56h0a.4.4,0,0,1,.563.105h0a.394.394,0,0,1-.105.549h0a.406.406,0,0,1-.222.071h0A.394.394,0,0,1,439.091,310.9ZM370.362,311a.386.386,0,0,1-.1-.549h0a.4.4,0,0,1,.55-.117h0a.4.4,0,0,1,.105.562h0a.377.377,0,0,1-.328.175h0A.412.412,0,0,1,370.362,311Zm-71.993-.443a.385.385,0,0,1,.047-.562h0a.405.405,0,0,1,.563.047h0a.4.4,0,0,1-.047.562h0a.37.37,0,0,1-.257.094h0A.381.381,0,0,1,298.369,310.555Zm68.7-1.755a.392.392,0,0,1-.118-.55h0a.391.391,0,0,1,.551-.118h0a.4.4,0,0,1,.117.551h0a.375.375,0,0,1-.328.174h0A.373.373,0,0,1,367.064,308.8Zm75.281-.187a.382.382,0,0,1,.082-.55h0a.4.4,0,0,1,.56.082h0a.407.407,0,0,1-.094.561h0a.415.415,0,0,1-.233.07h0A.36.36,0,0,1,442.345,308.613Zm-140.921-.6a.4.4,0,0,1,.058-.561h0a.4.4,0,0,1,.562.058h0a.391.391,0,0,1-.058.56h0a.349.349,0,0,1-.259.095h0A.386.386,0,0,1,301.423,308.016Zm62.306-1.357a.4.4,0,0,1-.128-.55h0a.4.4,0,0,1,.55-.129h0a.4.4,0,0,1,.129.55h0a.407.407,0,0,1-.339.2h0A.356.356,0,0,1,363.729,306.659Zm81.8-.421a.4.4,0,0,1,.071-.562h0a.4.4,0,0,1,.562.07h0a.418.418,0,0,1-.07.562h-.012a.358.358,0,0,1-.234.082h0A.4.4,0,0,1,445.525,306.238Zm-140.99-.679a.406.406,0,0,1,.082-.562h0a.408.408,0,0,1,.562.082h0a.406.406,0,0,1-.083.56h0a.424.424,0,0,1-.233.083h0A.41.41,0,0,1,304.535,305.56Zm55.789-.924a.4.4,0,0,1-.139-.551h0a.387.387,0,0,1,.538-.139h0a.381.381,0,0,1,.152.538h0a.412.412,0,0,1-.351.211h0A.5.5,0,0,1,360.324,304.635Zm88.3-.877a.4.4,0,0,1,.059-.562h0a.4.4,0,0,1,.561.057h0a.405.405,0,0,1-.047.563h0a.464.464,0,0,1-.259.094h0A.392.392,0,0,1,448.627,303.758Zm-140.863-.515a.4.4,0,0,1,.1-.562h0a.413.413,0,0,1,.563.117h0a.4.4,0,0,1-.118.55h0a.388.388,0,0,1-.221.07h0A.4.4,0,0,1,307.764,303.243Zm49.087-.491a.4.4,0,0,1-.164-.538h0a.4.4,0,0,1,.538-.177h0a.432.432,0,0,1,.174.551h0a.427.427,0,0,1-.361.211h0A.367.367,0,0,1,356.851,302.752Zm94.816-1.556a.4.4,0,0,1,.036-.562h.012a.4.4,0,0,1,.562.034h0a.406.406,0,0,1-.047.563h0a.365.365,0,0,1-.257.105h0A.4.4,0,0,1,451.667,301.2Zm-140.546-.07a.4.4,0,0,1,.152-.551h0a.4.4,0,0,1,.538.153h0a.4.4,0,0,1-.152.55h.011a.441.441,0,0,1-.2.047h0A.4.4,0,0,1,311.121,301.126Zm42.173-.071h0a.4.4,0,0,1-.2-.526h0a.394.394,0,0,1,.526-.2h0a.392.392,0,0,1,.2.528h0a.4.4,0,0,1-.363.234h0A.388.388,0,0,1,353.295,301.054Zm-3.65-1.485a.39.39,0,0,1-.234-.515h0a.41.41,0,0,1,.515-.235h0a.415.415,0,0,1,.234.516h0a.391.391,0,0,1-.374.256h0A.308.308,0,0,1,349.645,299.57Zm-35.014-.281a.4.4,0,0,1,.2-.526h0a.4.4,0,0,1,.538.2h0a.4.4,0,0,1-.211.526h0a.375.375,0,0,1-.165.035h0A.391.391,0,0,1,314.631,299.289Zm31.27-.948a.41.41,0,0,1-.269-.5h0a.409.409,0,0,1,.5-.268h0a.4.4,0,0,1,.269.5h0a.417.417,0,0,1-.386.281h0A.439.439,0,0,1,345.9,298.342Zm-27.6-.55a.4.4,0,0,1,.259-.5h0a.4.4,0,0,1,.5.256h0a.4.4,0,0,1-.257.5h0a.42.42,0,0,1-.129.023h0A.4.4,0,0,1,318.3,297.792Zm23.783-.421a.4.4,0,0,1-.3-.468h0a.387.387,0,0,1,.48-.3h0a.386.386,0,0,1,.3.467h0a.4.4,0,0,1-.4.317h0A.238.238,0,0,1,342.086,297.371Zm-19.981-.667a.4.4,0,0,1,.317-.48h0a.4.4,0,0,1,.467.3h0a.4.4,0,0,1-.3.481h0c-.023,0-.058.011-.082.011h0A.413.413,0,0,1,322.105,296.7Zm16.11-.012h0a.407.407,0,0,1-.339-.457h0a.388.388,0,0,1,.445-.339h.012a.411.411,0,0,1,.339.457h0a.413.413,0,0,1-.4.339h-.058Zm-12.2-.667a.394.394,0,0,1,.351-.433h0a.39.39,0,0,1,.445.35h0a.414.414,0,0,1-.364.446h-.034A.4.4,0,0,1,326.014,296.025Zm8.281.256h.013a.387.387,0,0,1-.374-.42h0a.4.4,0,0,1,.421-.374h0a.4.4,0,0,1,.374.433h0a.4.4,0,0,1-.4.374h0C334.32,296.294,334.308,296.281,334.295,296.281Zm-4.327-.514a.387.387,0,0,1,.4-.4h0a.394.394,0,0,1,.4.4h0a.4.4,0,0,1-.4.4h0A.4.4,0,0,1,329.968,295.768Z" transform="translate(-251.341 -295.369)" fill="#fff"/>
                <path id="Tracé_293" data-name="Tracé 293" d="M252.308,319.127a.345.345,0,0,1-.152-.036.31.31,0,0,1-.129-.094.231.231,0,0,1-.082-.127.324.324,0,0,1-.035-.152.429.429,0,0,1,.117-.281.292.292,0,0,1,.129-.082.347.347,0,0,1,.3,0,.239.239,0,0,1,.129.082.378.378,0,0,1,.117.281.307.307,0,0,1-.025.152.247.247,0,0,1-.092.127.4.4,0,0,1-.281.13Z" transform="translate(-251.91 -291.471)" fill="#fff"/>
              </g>
            </g>
            <g id="Groupe_808" data-name="Groupe 808" transform="translate(114.31 26.282)">
              <g id="Groupe_806" data-name="Groupe 806" transform="translate(0 0.065)">
                <path id="Tracé_294" data-name="Tracé 294" d="M314.578,218.662h0l-2.733-2.942a26.785,26.785,0,0,1-18.208,7.321,22.88,22.88,0,0,1-22.828-18.532l-4.1,1.076h0l-3.744.984a30.223,30.223,0,0,0,7.474,14.781c11.874,12.79,32.921,12.79,46.628,0Z" transform="translate(-262.378 -165.136)" fill="#fff"/>
                <path id="Tracé_295" data-name="Tracé 295" d="M313.319,179.047l-3.575,3.335h0l-2.468,2.3a23.27,23.27,0,0,1,6.062,17.674,26.917,26.917,0,0,1-8.589,17.684l2.14,2.3h0l3.088,3.327a35.6,35.6,0,0,0,11.329-23.314A30.834,30.834,0,0,0,313.319,179.047Z" transform="translate(-255.281 -169.461)" fill="#263238"/>
                <path id="Tracé_296" data-name="Tracé 296" d="M320.5,180.439c-11.874-12.782-32.922-12.782-46.628,0-8.909,8.321-13.043,20.484-10.817,31.847l4.63-1.217h0l3.209-.843a24.812,24.812,0,0,1-.375-6.473,27.291,27.291,0,0,1,26.787-25,23.152,23.152,0,0,1,17.15,7.321l3.163-2.952h0Z" transform="translate(-262.464 -170.853)" fill="#407bff"/>
              </g>
              <g id="Groupe_807" data-name="Groupe 807" transform="translate(80.749)">
                <path id="Tracé_297" data-name="Tracé 297" d="M342.377,224.227h0l3.154-2.943a23.3,23.3,0,0,1-6.054-17.682,27.411,27.411,0,0,1,20.263-24.156l-.788-4.02h0l-.721-3.672a36.115,36.115,0,0,0-15.392,8.533c-13.708,12.791-15.216,33.838-3.342,46.628Z" transform="translate(-331.488 -170.635)" fill="#fff"/>
                <path id="Tracé_298" data-name="Tracé 298" d="M384.962,219.724l-3.1-3.335h0l-2.138-2.3a26.756,26.756,0,0,1-18.2,7.329,23.169,23.169,0,0,1-17.158-7.321l-2.47,2.3h0l-3.565,3.326a30.65,30.65,0,0,0,22.622,9.658A35.433,35.433,0,0,0,384.962,219.724Z" transform="translate(-330.326 -163.444)" fill="#263238"/>
                <path id="Tracé_299" data-name="Tracé 299" d="M382.242,227.077c13.7-12.79,15.207-33.837,3.342-46.628-7.726-8.312-19.656-11.573-31.236-8.533l.891,4.544h0l.618,3.149a25.983,25.983,0,0,1,6.533-.84,22.958,22.958,0,0,1,23.2,25,26.9,26.9,0,0,1-8.588,17.674l2.74,2.952h0Z" transform="translate(-327.605 -170.797)" fill="#407bff"/>
              </g>
            </g>
            <path id="Tracé_300" data-name="Tracé 300" d="M429.125,173.455a2.3,2.3,0,0,1,2.324,2.507L430,196.141a2.939,2.939,0,0,1-2.843,2.654H406.982a2.295,2.295,0,0,1-2.323-2.507L406.1,176.11a2.938,2.938,0,0,1,2.842-2.656h20.179m0-1.032H408.946a3.956,3.956,0,0,0-3.871,3.613l-1.446,20.179a3.326,3.326,0,0,0,3.353,3.613h20.179a3.956,3.956,0,0,0,3.872-3.613l1.446-20.179a3.327,3.327,0,0,0-3.354-3.613Z" transform="translate(-124.177 -144.239)" fill="#407bff" opacity="0.3"/>
            <path id="Tracé_301" data-name="Tracé 301" d="M427,203.136a2.295,2.295,0,0,1,2.323,2.506l-1.446,20.179a2.937,2.937,0,0,1-2.842,2.654H404.855a2.293,2.293,0,0,1-2.323-2.507l1.446-20.178a2.937,2.937,0,0,1,2.842-2.654H427m0-1.033H406.82a3.955,3.955,0,0,0-3.871,3.613L401.5,225.894a3.327,3.327,0,0,0,3.354,3.614h20.179a3.956,3.956,0,0,0,3.871-3.614l1.447-20.179A3.328,3.328,0,0,0,427,202.1Z" transform="translate(-124.538 -139.197)" fill="#407bff" opacity="0.3"/>
            <path id="Tracé_302" data-name="Tracé 302" d="M398.543,298.579a1.919,1.919,0,0,1,1.953,2.106,2.462,2.462,0,0,1-2.412,2.254,1.919,1.919,0,0,1-1.952-2.107,2.461,2.461,0,0,1,2.412-2.253m0-1.033a3.508,3.508,0,0,0-3.443,3.212,2.951,2.951,0,0,0,2.983,3.212,3.505,3.505,0,0,0,3.442-3.212,2.95,2.95,0,0,0-2.982-3.212Z" transform="translate(-125.625 -122.985)" fill="#407bff"/>
            <g id="Groupe_809" data-name="Groupe 809" transform="translate(272.661 123.892)">
              <path id="Tracé_303" data-name="Tracé 303" d="M398.336,297.716l-.514-.036.074-1.029.514.036Z" transform="translate(-397.822 -247.03)" fill="#407bff"/>
              <path id="Tracé_304" data-name="Tracé 304" d="M398.529,301.322l-.514-.036.152-2.113.514.036Zm.3-4.224-.515-.037.152-2.113.515.036Zm.3-4.227-.515-.036.152-2.112.515.036Zm.3-4.224-.514-.036.152-2.114.514.036Zm.3-4.226-.514-.037.152-2.112.514.036Zm.3-4.226-.514-.036.151-2.113.514.036Zm.3-4.226-.515-.036.151-2.113.515.036Zm.3-4.224-.515-.037.151-2.113.515.036Zm.3-4.227-.514-.036.152-2.112.514.036Zm.3-4.224-.514-.036.152-2.114.514.037Zm.3-4.226-.514-.036.151-2.113.515.036Z" transform="translate(-397.79 -253.778)" fill="#407bff"/>
              <rect id="Rectangle_154" data-name="Rectangle 154" width="1.032" height="0.515" transform="translate(3.558 1.029) rotate(-85.938)" fill="#407bff"/>
            </g>
            <path id="Tracé_305" data-name="Tracé 305" d="M447.215,257.716H261.969a3.643,3.643,0,0,1-3.663-3.948l.914-12.753a4.226,4.226,0,0,1,4.144-3.868H448.61a3.642,3.642,0,0,1,3.663,3.947l-.914,12.754A4.229,4.229,0,0,1,447.215,257.716ZM263.364,238.267a3.091,3.091,0,0,0-3.029,2.828l-.914,12.754a2.522,2.522,0,0,0,2.548,2.747H447.215a3.091,3.091,0,0,0,3.03-2.828l.914-12.753a2.524,2.524,0,0,0-2.548-2.748Z" transform="translate(-148.862 -133.245)" fill="#407bff"/>
            <path id="Tracé_306" data-name="Tracé 306" d="M442.116,244.68h-175.6a1.6,1.6,0,0,1-1.611-1.735h0a1.9,1.9,0,0,1,1.859-1.736h175.6a1.6,1.6,0,0,1,1.611,1.736h0A1.9,1.9,0,0,1,442.116,244.68Z" transform="translate(-147.74 -132.555)" fill="#fff" fill-rule="evenodd" opacity="0.8"/>
            <path id="Tracé_307" data-name="Tracé 307" d="M412.927,250.935H266.067a1.6,1.6,0,0,1-1.611-1.735h0a1.9,1.9,0,0,1,1.86-1.736H413.177a1.6,1.6,0,0,1,1.611,1.736h0A1.9,1.9,0,0,1,412.927,250.935Z" transform="translate(-147.816 -131.492)" fill="#fff" fill-rule="evenodd" opacity="0.8"/>
          </g>
        </g>
      </g>
    </g>
  </g>
</svg>
