<svg xmlns="http://www.w3.org/2000/svg" xmlns:xlink="http://www.w3.org/1999/xlink" width="172.841" height="32.813" viewBox="0 0 172.841 32.813">
  <defs>
    <clipPath id="clip-path">
      <path id="Tracé_136" data-name="Tracé 136" d="M153.048,91.77s-.731,11.1,12.309,16.072a19.1,19.1,0,0,1-12.468.731c-2.117-4.263-4.624-10.389.159-16.8" transform="translate(-150.31 -91.77)"/>
    </clipPath>
    <clipPath id="clip-path-2">
      <path id="Tracé_146" data-name="Tracé 146" d="M126.129,115.94a7.281,7.281,0,0,0,2.079-.236c.866-.226,1.675-.832,2.315-.958a3.276,3.276,0,0,1,2.18.419c3.729,2,5.452,4.09,8.628,4.321l.284.014h0c-2.56-.01-4.331-.852-6.924-.693-.693.043-.573,0-1.208-.289a24.612,24.612,0,0,0-2.94-1.136c-.8-.255-1.583-.457-2.343-.63-.481-.106-2.3-.269-2.382-.765-.029-.149.106-.058.313-.048" transform="translate(-125.812 -114.697)"/>
    </clipPath>
    <linearGradient id="linear-gradient" x1="0.938" y1="2.947" x2="0.271" y2="-0.782" gradientUnits="objectBoundingBox">
      <stop offset="0" stop-color="#ff057e"/>
      <stop offset="1" stop-color="#fc0"/>
    </linearGradient>
  </defs>
  <g id="Groupe_1531" data-name="Groupe 1531" transform="translate(-899 -94)">
    <g id="Groupe_139" data-name="Groupe 139" transform="translate(899 94)">
      <g id="Groupe_135" data-name="Groupe 135" transform="translate(11.789 2.199)">
        <path id="Tracé_135" data-name="Tracé 135" d="M153.048,91.77s-.731,11.1,12.309,16.072a19.1,19.1,0,0,1-12.468.731c-2.117-4.263-4.624-10.389.159-16.8" transform="translate(-150.31 -91.77)" fill="#2883ea"/>
        <g id="Groupe_134" data-name="Groupe 134" clip-path="url(#clip-path)">
          <rect id="Rectangle_88" data-name="Rectangle 88" width="17.092" height="18.844" transform="translate(-2.045)" fill="#2883ea"/>
        </g>
      </g>
      <path id="Tracé_137" data-name="Tracé 137" d="M155.74,91.77s-.731,11.1,12.309,16.072a15.422,15.422,0,0,1-2.093.722q-.859-.346-1.819-.751c-10.865-4.6-8.4-16.043-8.4-16.043" transform="translate(-141.214 -89.571)" fill="#3b1385" fill-rule="evenodd"/>
      <path id="Tracé_138" data-name="Tracé 138" d="M155.553,109.17a15.261,15.261,0,0,1-2.661-.6c-2.117-4.263-4.62-10.389.159-16.8-3.094,4.783-1.718,13.464,2.5,17.4" transform="translate(-138.524 -89.571)" fill="#28d0ea" fill-rule="evenodd"/>
      <path id="Tracé_139" data-name="Tracé 139" d="M160.547,116.64a21.508,21.508,0,0,0,6.886,4.1,19.1,19.1,0,0,1-12.468.731c-.212-.433-.433-.881-.645-1.347.01,0,3.508.308,6.227-3.489" transform="translate(-140.602 -102.473)" fill="#3b1385" fill-rule="evenodd"/>
      <g id="Groupe_136" data-name="Groupe 136" transform="translate(8.102)">
        <path id="Tracé_140" data-name="Tracé 140" d="M148.857,105.024a7.225,7.225,0,0,0,1.2.188c9.075.659,17.516-9.523,18.358-18.011,0,0,6.823,8.739.385,16.9a9.434,9.434,0,0,0,3.763-5.486c.414,6.106-4.109,7.949-6.8,9.186-3.749,1.728-1.116,2.974,1.2,2.594a7.748,7.748,0,0,0,1.362-.366c-5.187,8.229-16.1-.351-23.935-4.672-.51-.279-1.006-.544-1.487-.784l-.255-.125a14.621,14.621,0,0,1,6.207.577" transform="translate(-142.65 -87.2)" fill="#2883ea"/>
      </g>
      <path id="Tracé_141" data-name="Tracé 141" d="M148.847,123.507a7.225,7.225,0,0,0,1.2.188l.279.014h0s-.433,0-.938-.019a21.221,21.221,0,0,0-5.13.091c-.472-.26-.929-.5-1.376-.722l-.255-.125a14.576,14.576,0,0,1,6.217.573" transform="translate(-134.537 -105.683)" fill="#3b1385" fill-rule="evenodd"/>
      <path id="Tracé_142" data-name="Tracé 142" d="M165.1,128.969a5.106,5.106,0,0,0,1.862.038,7.748,7.748,0,0,0,1.362-.366c-5.187,8.229-16.1-.351-23.935-4.672-.51-.279-1.006-.544-1.487-.784l-.255-.125c6.333.881,13.589,7.208,19.229,7.382,2.7.082,3.224-1.472,3.224-1.472Z" transform="translate(-134.548 -105.804)" fill="#3b1385" fill-rule="evenodd"/>
      <path id="Tracé_143" data-name="Tracé 143" d="M195.426,111.48c.269,5.895-4.162,7.7-6.814,8.921-2,.919-2.185,1.7-1.569,2.18h0a.8.8,0,0,1-.356-.606c-.039-.621.443-1.15,1.107-1.607,3.344-2.315,6.992-2.728,7.589-7.954a7.3,7.3,0,0,0,.043-.934" transform="translate(-157.393 -99.796)" fill="#3b1385" fill-rule="evenodd"/>
      <path id="Tracé_144" data-name="Tracé 144" d="M193.8,87.21s6.337,8.118,1.03,16.01c-.2.289-.409.582-.635.871a9.2,9.2,0,0,1-2.623,1.246C198.018,98,193.8,87.21,193.8,87.21" transform="translate(-159.927 -87.205)" fill="#3b1385" fill-rule="evenodd"/>
      <path id="Tracé_145" data-name="Tracé 145" d="M154.927,105.024a7.224,7.224,0,0,0,1.2.188c9.075.659,17.516-9.523,18.358-18.011.366,11.645-3.874,18.454-15.937,18.3a13.8,13.8,0,0,1-4.2-.621Z" transform="translate(-140.617 -87.2)" fill="#28d0ea" fill-rule="evenodd"/>
      <g id="Groupe_138" data-name="Groupe 138" transform="translate(0 13.232)">
        <g id="Groupe_137" data-name="Groupe 137" clip-path="url(#clip-path-2)">
          <rect id="Rectangle_89" data-name="Rectangle 89" width="15.822" height="4.903" transform="translate(-0.025 -0.105)" fill="url(#linear-gradient)"/>
        </g>
      </g>
      <path id="Tracé_147" data-name="Tracé 147" d="M142.531,119.38c1.968,1.3,3.474,2.368,5.683,2.526l.284.014h0c-2.56-.01-4.331-.852-6.924-.693-.693.043-.573,0-1.208-.289-.428-.2-.857-.38-1.275-.544a6.28,6.28,0,0,0,2.276.443s1.684-.072,1.164-1.458" transform="translate(-132.701 -103.895)" fill="#cc0680" fill-rule="evenodd"/>
      <path id="Tracé_148" data-name="Tracé 148" d="M137.768,118.3Zm-11.635-2.363a7.281,7.281,0,0,0,2.079-.236c.866-.226,1.675-.832,2.315-.958a3.276,3.276,0,0,1,2.18.419c1.165.626,2.137,1.256,3.017,1.838-.481-.269-.938-.5-1.362-.693-3.513-1.588-3.647-.948-5.592-.505a7.369,7.369,0,0,1-2.695.168c-.087-.014-.159-.024-.159-.024a.07.07,0,0,0-.077.091.184.184,0,0,1-.014-.048C125.791,115.839,125.925,115.93,126.132,115.94Z" transform="translate(-125.816 -101.466)" fill="#fef163" fill-rule="evenodd"/>
    </g>
    <g id="Groupe_140" data-name="Groupe 140" transform="translate(947.769 97.83)">
      <path id="Tracé_149" data-name="Tracé 149" d="M234.816,117.906a7.35,7.35,0,0,1-3.075-.645,7.275,7.275,0,0,1-2.43-1.78,8.333,8.333,0,0,1-1.583-2.661,9.262,9.262,0,0,1-.568-3.272,9.542,9.542,0,0,1,.539-3.258,8.447,8.447,0,0,1,1.492-2.642,6.822,6.822,0,0,1,2.276-1.78,6.52,6.52,0,0,1,2.892-.645,6.124,6.124,0,0,1,3.214.861,6.255,6.255,0,0,1,2.228,2.242V95.16h4.119v17.708a1.535,1.535,0,0,0,.217.924.959.959,0,0,0,.736.308v3.5a9.259,9.259,0,0,1-1.752.217,2.85,2.85,0,0,1-1.814-.553,2.038,2.038,0,0,1-.8-1.444l-.091-1.015A5.835,5.835,0,0,1,238,117.127,6.922,6.922,0,0,1,234.816,117.906Zm1.073-3.5a3.951,3.951,0,0,0,1.2-.2,4.256,4.256,0,0,0,1.136-.568,5.13,5.13,0,0,0,.938-.861,3.542,3.542,0,0,0,.63-1.078v-3.845a4.464,4.464,0,0,0-.693-1.246,5.025,5.025,0,0,0-1.015-.982,5.228,5.228,0,0,0-1.2-.659,3.418,3.418,0,0,0-1.246-.245,3.735,3.735,0,0,0-1.708.4,4.021,4.021,0,0,0-1.338,1.092,5.3,5.3,0,0,0-.861,1.583,5.57,5.57,0,0,0-.308,1.843,5.064,5.064,0,0,0,.337,1.877,4.881,4.881,0,0,0,.924,1.506,4.161,4.161,0,0,0,1.4,1.015A4.367,4.367,0,0,0,235.889,114.4Z" transform="translate(-227.16 -95.16)" fill="#0d2241"/>
      <path id="Tracé_150" data-name="Tracé 150" d="M275.2,124.428a6.153,6.153,0,0,1-2.185-.385,5.185,5.185,0,0,1-1.752-1.078,5.11,5.11,0,0,1-1.155-1.612,4.85,4.85,0,0,1-.414-2.031,4.5,4.5,0,0,1,.505-2.108,4.821,4.821,0,0,1,1.415-1.646,6.991,6.991,0,0,1,2.165-1.059,9.471,9.471,0,0,1,2.767-.385,12.217,12.217,0,0,1,2.108.183,8.373,8.373,0,0,1,1.829.525v-.924a3.225,3.225,0,0,0-.909-2.459,3.779,3.779,0,0,0-2.69-.861,7.107,7.107,0,0,0-2.521.462,11.9,11.9,0,0,0-2.521,1.352l-1.261-2.613a11.9,11.9,0,0,1,6.7-2.06,7.836,7.836,0,0,1,5.394,1.708,6.249,6.249,0,0,1,1.92,4.932v5.009a1.461,1.461,0,0,0,.231.924,1.01,1.01,0,0,0,.751.308v3.5a9.147,9.147,0,0,1-1.814.217,2.73,2.73,0,0,1-1.8-.525,2.239,2.239,0,0,1-.784-1.386l-.091-.89a7.107,7.107,0,0,1-2.613,2.151A7.293,7.293,0,0,1,275.2,124.428Zm1.169-3.012a5.279,5.279,0,0,0,1.983-.371,3.574,3.574,0,0,0,1.458-.982,1.474,1.474,0,0,0,.678-1.169v-1.843a10.562,10.562,0,0,0-1.6-.448,8.753,8.753,0,0,0-1.66-.168,4.413,4.413,0,0,0-2.613.722,2.166,2.166,0,0,0-1.015,1.829,2.2,2.2,0,0,0,.8,1.737A2.9,2.9,0,0,0,276.374,121.415Z" transform="translate(-249.23 -101.681)" fill="#0d2241"/>
      <path id="Tracé_151" data-name="Tracé 151" d="M318.376,117.964a18.489,18.489,0,0,1-2.031.736,8.547,8.547,0,0,1-2.521.371,5.8,5.8,0,0,1-1.612-.217,3.593,3.593,0,0,1-1.323-.693,3.385,3.385,0,0,1-.909-1.227,4.433,4.433,0,0,1-.337-1.829v-9.253H307.52v-3.166h2.122V97.46h4.119v5.226h3.383v3.166h-3.383v7.868a1.46,1.46,0,0,0,.448,1.213,1.7,1.7,0,0,0,1.092.356,3.776,3.776,0,0,0,1.261-.217c.409-.144.736-.265.982-.371Z" transform="translate(-268.851 -96.353)" fill="#0d2241"/>
      <path id="Tracé_152" data-name="Tracé 152" d="M339.345,124.428a6.153,6.153,0,0,1-2.185-.385,5.184,5.184,0,0,1-1.752-1.078,5.11,5.11,0,0,1-1.155-1.612,4.85,4.85,0,0,1-.414-2.031,4.5,4.5,0,0,1,.505-2.108,4.821,4.821,0,0,1,1.415-1.646,6.991,6.991,0,0,1,2.165-1.059,9.472,9.472,0,0,1,2.767-.385,12.217,12.217,0,0,1,2.108.183,8.373,8.373,0,0,1,1.829.525v-.924a3.225,3.225,0,0,0-.909-2.459,3.779,3.779,0,0,0-2.69-.861,7.107,7.107,0,0,0-2.521.462,11.9,11.9,0,0,0-2.521,1.352l-1.261-2.613a11.9,11.9,0,0,1,6.7-2.06,7.836,7.836,0,0,1,5.394,1.708,6.249,6.249,0,0,1,1.92,4.932v5.009a1.462,1.462,0,0,0,.231.924,1.01,1.01,0,0,0,.751.308v3.5a9.146,9.146,0,0,1-1.814.217,2.73,2.73,0,0,1-1.8-.525,2.239,2.239,0,0,1-.784-1.386l-.091-.89a7.107,7.107,0,0,1-2.613,2.151A7.293,7.293,0,0,1,339.345,124.428Zm1.169-3.012a5.279,5.279,0,0,0,1.983-.371,3.574,3.574,0,0,0,1.458-.982,1.474,1.474,0,0,0,.678-1.169v-1.843a10.563,10.563,0,0,0-1.6-.448,8.753,8.753,0,0,0-1.66-.168,4.413,4.413,0,0,0-2.613.722,2.166,2.166,0,0,0-1.015,1.829,2.2,2.2,0,0,0,.8,1.737A2.9,2.9,0,0,0,340.514,121.415Z" transform="translate(-282.506 -101.681)" fill="#0d2241"/>
      <path id="Tracé_153" data-name="Tracé 153" d="M384.063,124.433a6.356,6.356,0,0,1-3.32-.847,6.024,6.024,0,0,1-2.214-2.291v9.374H374.41V108.014H378v2.767a6.587,6.587,0,0,1,2.3-2.228,6.408,6.408,0,0,1,3.258-.813,6.934,6.934,0,0,1,3.012.659,7.417,7.417,0,0,1,2.382,1.785,8.418,8.418,0,0,1,1.569,2.642,9.077,9.077,0,0,1,.568,3.214,10.083,10.083,0,0,1-.525,3.291,8.494,8.494,0,0,1-1.463,2.675,6.744,6.744,0,0,1-2.228,1.78A6.137,6.137,0,0,1,384.063,124.433Zm-1.381-3.5a3.735,3.735,0,0,0,1.708-.4,4.1,4.1,0,0,0,1.338-1.078,5.053,5.053,0,0,0,.861-1.569,5.57,5.57,0,0,0,.308-1.843,5.214,5.214,0,0,0-.337-1.891,4.7,4.7,0,0,0-.938-1.521,4.387,4.387,0,0,0-1.415-1.015,4.239,4.239,0,0,0-1.766-.371,3.951,3.951,0,0,0-1.2.2,4.255,4.255,0,0,0-1.136.568,5.13,5.13,0,0,0-.938.861,3.642,3.642,0,0,0-.63,1.078v3.782a5.511,5.511,0,0,0,1.689,2.291A3.833,3.833,0,0,0,382.682,120.93Z" transform="translate(-303.553 -101.687)" fill="#0d2241"/>
      <path id="Tracé_154" data-name="Tracé 154" d="M422.888,124.433a8.983,8.983,0,0,1-3.5-.659,8.039,8.039,0,0,1-2.675-1.8A8.134,8.134,0,0,1,415,119.332a8.5,8.5,0,0,1-.6-3.166,9.08,9.08,0,0,1,.582-3.243,7.95,7.95,0,0,1,1.689-2.675,8.073,8.073,0,0,1,2.69-1.829,8.919,8.919,0,0,1,3.551-.678,8.7,8.7,0,0,1,3.518.678,8.072,8.072,0,0,1,2.642,1.814,7.78,7.78,0,0,1,1.66,2.642,8.791,8.791,0,0,1,.568,3.137c0,.265,0,.525-.014.77a2.93,2.93,0,0,1-.077.616H418.76a4.8,4.8,0,0,0,.462,1.689,4.132,4.132,0,0,0,2.276,2.06,4.378,4.378,0,0,0,1.535.279,4.7,4.7,0,0,0,2.319-.6,3.2,3.2,0,0,0,1.492-1.583l3.537.982a7.2,7.2,0,0,1-2.844,3.027A8.76,8.76,0,0,1,422.888,124.433Zm4.182-9.711a4.29,4.29,0,0,0-1.338-2.906,4.3,4.3,0,0,0-4.427-.8,4.15,4.15,0,0,0-1.275.813,4.1,4.1,0,0,0-.9,1.261,4.383,4.383,0,0,0-.414,1.631h8.358Z" transform="translate(-324.3 -101.687)" fill="#0d2241"/>
      <path id="Tracé_155" data-name="Tracé 155" d="M455.827,108.32l3.474,5.043.245.553.308-.553,3.445-5.043h4.244l-5.75,8.084,5.837,8.026h-4.244l-3.566-5.009-.274-.525-.245.525-3.537,5.009H451.52l5.808-8.022-5.717-8.084h4.215Z" transform="translate(-343.558 -101.987)" fill="#0d2241"/>
    </g>
  </g>
</svg>
