<svg xmlns="http://www.w3.org/2000/svg" width="50" height="53.333" viewBox="0 0 50 53.333">
  <g id="upload" transform="translate(-16)">
    <g id="Groupe_1548" data-name="Groupe 1548" transform="translate(27.666)">
      <g id="Groupe_1547" data-name="Groupe 1547">
        <path id="Tracé_315" data-name="Tracé 315" d="M154.252,13.9,142.585.57a1.663,1.663,0,0,0-2.507,0L128.412,13.9a1.666,1.666,0,0,0,1.253,2.763h6.667V38.333A1.667,1.667,0,0,0,138,40h6.667a1.667,1.667,0,0,0,1.667-1.667V16.667H153a1.666,1.666,0,0,0,1.253-2.763Z" transform="translate(-127.998 0)" fill="#0078ff"/>
      </g>
    </g>
    <g id="Groupe_1550" data-name="Groupe 1550" transform="translate(16 36.667)">
      <g id="Groupe_1549" data-name="Groupe 1549" transform="translate(0)">
        <path id="Tracé_316" data-name="Tracé 316" d="M59.333,352v10H22.667V352H16v13.333a3.332,3.332,0,0,0,3.333,3.333H62.667A3.33,3.33,0,0,0,66,365.333V352Z" transform="translate(-16 -352)" fill="#0078ff"/>
      </g>
    </g>
  </g>
</svg>
