<svg id="logo-right" xmlns="http://www.w3.org/2000/svg" xmlns:xlink="http://www.w3.org/1999/xlink" width="38.045" height="26.274" viewBox="0 0 38.045 26.274">
  <defs>
    <clipPath id="clip-path">
      <path id="Tracé_136" data-name="Tracé 136" d="M153.048,91.77s-.731,11.1,12.309,16.072a19.1,19.1,0,0,1-12.468.731c-2.117-4.263-4.624-10.389.159-16.8" transform="translate(-150.31 -91.77)" fill="#fff"/>
    </clipPath>
    <clipPath id="clip-path-2">
      <path id="Tracé_146" data-name="Tracé 146" d="M126.129,115.94a7.281,7.281,0,0,0,2.079-.236c.866-.226,1.675-.832,2.315-.958a3.276,3.276,0,0,1,2.18.419c3.729,2,5.452,4.09,8.628,4.321l.284.014h0c-2.56-.01-4.331-.852-6.924-.693-.693.043-.573,0-1.208-.289a24.612,24.612,0,0,0-2.94-1.136c-.8-.255-1.583-.457-2.343-.63-.481-.106-2.3-.269-2.382-.765-.029-.149.106-.058.313-.048" transform="translate(-125.812 -114.697)" fill="#2883ea"/>
    </clipPath>
  </defs>
  <g id="Groupe_135" data-name="Groupe 135" transform="translate(11.789 2.199)">
    <path id="Tracé_135" data-name="Tracé 135" d="M153.048,91.77s-.731,11.1,12.309,16.072a19.1,19.1,0,0,1-12.468.731c-2.117-4.263-4.624-10.389.159-16.8" transform="translate(-150.31 -91.77)" fill="#2883ea"/>
    <g id="Groupe_134" data-name="Groupe 134" clip-path="url(#clip-path)">
      <path id="Tracé_312" data-name="Tracé 312" d="M0,0H17.092V18.844H0Z" transform="translate(-2.045)" fill="#2883ea"/>
    </g>
  </g>
  <path id="Tracé_137" data-name="Tracé 137" d="M155.74,91.77s-.731,11.1,12.309,16.072a15.422,15.422,0,0,1-2.093.722q-.859-.346-1.819-.751c-10.865-4.6-8.4-16.043-8.4-16.043" transform="translate(-141.214 -89.571)" fill="#e3f0ff" fill-rule="evenodd"/>
  <path id="Tracé_138" data-name="Tracé 138" d="M155.553,109.17a15.261,15.261,0,0,1-2.661-.6c-2.117-4.263-4.62-10.389.159-16.8-3.094,4.783-1.718,13.464,2.5,17.4" transform="translate(-138.524 -89.571)" fill="#e3f0ff" fill-rule="evenodd"/>
  <path id="Tracé_139" data-name="Tracé 139" d="M160.547,116.64a21.508,21.508,0,0,0,6.886,4.1,19.1,19.1,0,0,1-12.468.731c-.212-.433-.433-.881-.645-1.347.01,0,3.508.308,6.227-3.489" transform="translate(-140.602 -102.473)" fill="#e3f0ff" fill-rule="evenodd"/>
  <g id="Groupe_136" data-name="Groupe 136" transform="translate(8.102)">
    <path id="Tracé_140" data-name="Tracé 140" d="M148.857,105.024a7.225,7.225,0,0,0,1.2.188c9.075.659,17.516-9.523,18.358-18.011,0,0,6.823,8.739.385,16.9a9.434,9.434,0,0,0,3.763-5.486c.414,6.106-4.109,7.949-6.8,9.186-3.749,1.728-1.116,2.974,1.2,2.594a7.748,7.748,0,0,0,1.362-.366c-5.187,8.229-16.1-.351-23.935-4.672-.51-.279-1.006-.544-1.487-.784l-.255-.125a14.621,14.621,0,0,1,6.207.577" transform="translate(-142.65 -87.2)" fill="#2883ea"/>
  </g>
  <path id="Tracé_141" data-name="Tracé 141" d="M148.847,123.507a7.225,7.225,0,0,0,1.2.188l.279.014h0s-.433,0-.938-.019a21.221,21.221,0,0,0-5.13.091c-.472-.26-.929-.5-1.376-.722l-.255-.125a14.576,14.576,0,0,1,6.217.573" transform="translate(-134.537 -105.683)" fill="#e3f0ff" fill-rule="evenodd"/>
  <path id="Tracé_142" data-name="Tracé 142" d="M165.1,128.969a5.106,5.106,0,0,0,1.862.038,7.748,7.748,0,0,0,1.362-.366c-5.187,8.229-16.1-.351-23.935-4.672-.51-.279-1.006-.544-1.487-.784l-.255-.125c6.333.881,13.589,7.208,19.229,7.382,2.7.082,3.224-1.472,3.224-1.472Z" transform="translate(-134.548 -105.804)" fill="#e3f0ff" fill-rule="evenodd"/>
  <path id="Tracé_143" data-name="Tracé 143" d="M195.426,111.48c.269,5.895-4.162,7.7-6.814,8.921-2,.919-2.185,1.7-1.569,2.18h0a.8.8,0,0,1-.356-.606c-.039-.621.443-1.15,1.107-1.607,3.344-2.315,6.992-2.728,7.589-7.954a7.3,7.3,0,0,0,.043-.934" transform="translate(-157.393 -99.796)" fill="#e3f0ff" fill-rule="evenodd"/>
  <path id="Tracé_144" data-name="Tracé 144" d="M193.8,87.21s6.337,8.118,1.03,16.01c-.2.289-.409.582-.635.871a9.2,9.2,0,0,1-2.623,1.246C198.018,98,193.8,87.21,193.8,87.21" transform="translate(-159.927 -87.205)" fill="#e3f0ff" fill-rule="evenodd"/>
  <path id="Tracé_145" data-name="Tracé 145" d="M154.927,105.024a7.224,7.224,0,0,0,1.2.188c9.075.659,17.516-9.523,18.358-18.011.366,11.645-3.874,18.454-15.937,18.3a13.8,13.8,0,0,1-4.2-.621Z" transform="translate(-140.617 -87.2)" fill="#e3f0ff" fill-rule="evenodd"/>
  <g id="Groupe_138" data-name="Groupe 138" transform="translate(0 13.232)">
    <g id="Groupe_137" data-name="Groupe 137" clip-path="url(#clip-path-2)">
      <rect id="Rectangle_89" data-name="Rectangle 89" width="15.822" height="4.903" transform="translate(-0.025 -0.105)" fill="#2883ea"/>
    </g>
  </g>
  <path id="Tracé_147" data-name="Tracé 147" d="M142.531,119.38c1.968,1.3,3.474,2.368,5.683,2.526l.284.014h0c-2.56-.01-4.331-.852-6.924-.693-.693.043-.573,0-1.208-.289-.428-.2-.857-.38-1.275-.544a6.28,6.28,0,0,0,2.276.443s1.684-.072,1.164-1.458" transform="translate(-132.701 -103.895)" fill="#e3f0ff" fill-rule="evenodd"/>
  <path id="Tracé_148" data-name="Tracé 148" d="M137.768,118.3Zm-11.635-2.363a7.281,7.281,0,0,0,2.079-.236c.866-.226,1.675-.832,2.315-.958a3.276,3.276,0,0,1,2.18.419c1.165.626,2.137,1.256,3.017,1.838-.481-.269-.938-.5-1.362-.693-3.513-1.588-3.647-.948-5.592-.505a7.369,7.369,0,0,1-2.695.168c-.087-.014-.159-.024-.159-.024a.07.07,0,0,0-.077.091.184.184,0,0,1-.014-.048C125.791,115.839,125.925,115.93,126.132,115.94Z" transform="translate(-125.816 -101.466)" fill="#e3f0ff" fill-rule="evenodd"/>
</svg>
