<svg xmlns="http://www.w3.org/2000/svg" width="19.71" height="19.081" viewBox="0 0 19.71 19.081">
  <g id="house-black-silhouette-without-door_2_" data-name="house-black-silhouette-without-door (2)" transform="translate(0 -2.89)">
    <path id="Tracé_173" data-name="Tracé 173" d="M19.463,14.2a.94.94,0,0,0-.077-1.345L10.577,5.148a1.1,1.1,0,0,0-1.432.017l-8.838,8.1a.934.934,0,0,0-.043,1.343l.222.231a.966.966,0,0,0,1.326.1l.661-.592v8.66a.961.961,0,0,0,.961.961H6.879a.961.961,0,0,0,.961-.961V16.951h4.394V23.01a.909.909,0,0,0,.9.961h3.651a.961.961,0,0,0,.961-.961V14.472l.408.358c.225.2.7.039,1.054-.354Z" transform="translate(0 -2)" fill="#fff"/>
  </g>
</svg>
