<svg xmlns="http://www.w3.org/2000/svg" width="22.557" height="25.2" viewBox="0 0 22.557 25.2">
  <g id="profile" transform="translate(-24.165)">
    <g id="Groupe_1543" data-name="Groupe 1543" transform="translate(28.902)">
      <g id="Groupe_1542" data-name="Groupe 1542" transform="translate(0)">
        <path id="Tracé_313" data-name="Tracé 313" d="M117.334,0a6.543,6.543,0,1,0,6.543,6.543A6.56,6.56,0,0,0,117.334,0Z" transform="translate(-110.791)" fill="#fff"/>
      </g>
    </g>
    <g id="Groupe_1545" data-name="Groupe 1545" transform="translate(24.165 13.554)">
      <g id="Groupe_1544" data-name="Groupe 1544">
        <path id="Tracé_314" data-name="Tracé 314" d="M46.674,252.6a6.1,6.1,0,0,0-.657-1.2,8.133,8.133,0,0,0-5.629-3.543,1.2,1.2,0,0,0-.829.2,6.974,6.974,0,0,1-8.229,0,1.072,1.072,0,0,0-.829-.2,8.074,8.074,0,0,0-5.629,3.543,7.033,7.033,0,0,0-.657,1.2.608.608,0,0,0,.029.543,11.4,11.4,0,0,0,.771,1.143,10.858,10.858,0,0,0,1.314,1.486,17.122,17.122,0,0,0,1.314,1.143,13.029,13.029,0,0,0,15.543,0,12.561,12.561,0,0,0,1.314-1.143,13.2,13.2,0,0,0,1.314-1.486,10.017,10.017,0,0,0,.771-1.143A.488.488,0,0,0,46.674,252.6Z" transform="translate(-24.165 -247.841)" fill="#fff"/>
      </g>
    </g>
  </g>
</svg>
